<?xml version="1.0" encoding="utf-8"?>
<!-- Generator: Adobe Illustrator 22.1.0, SVG Export Plug-In . SVG Version: 6.00 Build 0)  -->
<svg version="1.1" id="bafbdcdd-db4a-4743-9ceb-46364dc67d6e"
	 xmlns="http://www.w3.org/2000/svg" xmlns:xlink="http://www.w3.org/1999/xlink" x="0px" y="0px" viewBox="0 0 930.4 560.2"
	 style="enable-background:new 0 0 930.4 560.2;" xml:space="preserve">
<style type="text/css">
	.st0{fill:#F5F5F5;}
	.st1{fill:#3F3D56;}
	.st2{fill:none;stroke:#535461;stroke-width:2;stroke-miterlimit:10;}
	.st3{fill:#00AEB3;}
	.st4{fill:#F3B01B;}
	.st5{fill:#E15B4A;}
	.st6{fill:#FFFFFF;}
	.st7{opacity:0.1;enable-background:new    ;}
	.st8{fill:#EE4436;}
	.st9{fill:#4F4447;}
	.st10{fill:#F47F20;}
	.st11{fill:#258746;}
	.st12{fill:#FFB8B8;}
	.st13{fill:#2F2E41;}
</style>
<title>ideas</title>
<ellipse class="st0" cx="433.2" cy="505.7" rx="429.1" ry="54.5"/>
<g>
	<path class="st1" d="M803.8,485.2c0,0-13.9-34.2,27.8-59.8L803.8,485.2z"/>
	<path class="st1" d="M786.7,484.6c0,0-6.3-36.3-55.2-36L786.7,484.6z"/>
	<g>
		<path class="st2" d="M797.3,211.1c5.2,12.8,9.2,26.1,12,39.6c5.7,28.6,2,58.3-10.7,84.6c-29.7,62.9-4.3,148.1-4.3,148.1"/>
		<path class="st3" d="M815.5,171.3c0.1-1,0.1-2,0-2.9c-0.8-10.4-10-18.2-20.4-17.3c-10.4,0.8-18.2,10-17.3,20.4
			c0,10.5,19.1,40.7,19.1,40.7s18.8-30.4,18.8-40.8L815.5,171.3z"/>
		<path class="st4" d="M847.1,229.2c0.3-0.4,0.6-0.9,0.8-1.3c5.3-9,2.2-20.6-6.8-25.9c-9-5.3-20.6-2.2-25.9,6.8
			c-5.7,8.7-6.1,44.5-6.1,44.5S841.4,237.9,847.1,229.2L847.1,229.2z"/>
		<path class="st5" d="M846.3,328c9.3-4.8,12.9-16.2,8.1-25.5c-4.8-9.3-16.2-12.9-25.5-8.1c-9.3,4.7-27.8,35.3-27.8,35.3
			s35.6,3.2,44.9-1.6C846.1,328.1,846.2,328,846.3,328z"/>
		<path class="st3" d="M828.3,402.8c0.3-0.2,0.6-0.5,0.9-0.7c8.2-6.5,9.6-18.4,3.1-26.6c-6.5-8.2-18.4-9.6-26.6-3.1
			c-8.4,6.2-21.4,39.5-21.4,39.5S819.9,409.1,828.3,402.8L828.3,402.8z"/>
		<path class="st5" d="M769.4,255.2c-0.3-0.2-0.5-0.5-0.7-0.7c-7.3-7.5-7.2-19.5,0.3-26.8c7.5-7.3,19.5-7.2,26.8,0.3
			c7.5,7.3,16.2,41.9,16.2,41.9s-35-7.3-42.5-14.6L769.4,255.2z"/>
		<path class="st3" d="M741.7,318.6c4.3-9.5,15.5-13.8,25-9.5c9.4,4.7,28,35.2,28,35.2s-35.6,3.4-44.9-1.3
			C741.2,338.2,737.7,327.6,741.7,318.6z"/>
		<path class="st4" d="M742.5,430.7c-8.4-6.2-10.2-18-4-26.5c6.2-8.4,18-10.2,26.5-4c8.4,6.2,21.6,39.4,21.6,39.4
			S750.9,436.9,742.5,430.7L742.5,430.7z"/>
	</g>
</g>
<circle class="st6" cx="441.9" cy="398" r="9.5"/>
<circle class="st6" cx="474.3" cy="398" r="9.5"/>
<circle class="st6" cx="506.7" cy="398" r="9.5"/>
<g class="st7">
	<path d="M374.7,480.3c-19.6,9.6-60.1-2.5-91.5-1.5c-53.2,1.8-97.2-9.8-114.5-29.2c-21.8-24.6-24.7-49.2-11.7-93
		c7.6-25.5,28.4-50.3,62.1-55.5c6.1-0.9,12.4-1.1,18.7-0.6c0.6,24.9,23.2,33.5,40,48.9c49.8,45.5,61.6,59.3,93.6,56.3
		c0,0,0,0.1,0,0.1l0,0v0c-0.9,2.9-1.7,5.8-2.4,8.9C360.5,450.2,349.4,469.6,374.7,480.3z"/>
	<path d="M374.7,480.3c-25.4-10.7-14.2-30-5.6-65.6c0.8-3.1,1.5-6,2.4-8.9c4.3,10,8,20.1,10.9,29.9
		C390.4,462.1,386,474.7,374.7,480.3z"/>
	<path d="M583.9,470.9c-23.8,28-46.1,22.8-98.3,21.3c-60.9-1.6-94-4.9-110.9-12c11.3-5.5,15.7-18.2,7.8-44.6
		c-2.9-9.8-6.6-19.9-10.9-29.9v0c0,0,0-0.1,0-0.1c1.8-0.2,3.7-0.4,5.7-0.7c46.5-6.6,80.8-33.7,81.4-66.2c0.1-6.1-0.2-12.4-1.5-18.9
		c19.7-4.5,41.6-4.8,64.7-2c49.9,6.1,76.5,22.1,85.6,37.9C624.6,385.3,608.7,441.8,583.9,470.9z"/>
	<path d="M371.5,405.6c-32,3-43.8-10.8-93.6-56.3c-16.8-15.4-39.4-24-40-48.9c29.1,2.2,59.1,17.7,75.9,29.1
		C339.4,347.2,358.6,375.9,371.5,405.6z"/>
	<path d="M458.6,338.8c-0.5,32.5-34.9,59.6-81.4,66.2c-2,0.3-3.9,0.5-5.7,0.7c15-50.9,46-76.7,85.6-85.7
		C458.4,326.3,458.7,332.7,458.6,338.8z"/>
	<path d="M457.1,319.9c-39.5,9.1-70.6,34.9-85.6,85.7h-0.1c-12.9-29.7-32.1-58.4-57.8-76c-16.7-11.5-46.7-26.9-75.9-29.1
		c-0.1-5.7,0.9-12.2,3.3-19.9c15.2-46.9,97-59.4,156.8-26.9C439.1,275.8,453.1,298.7,457.1,319.9z"/>
</g>
<g>
	<path class="st8" d="M375.3,478.6c-19.4,9.4-59.2-2.5-90.2-1.4c-52.4,1.8-95.8-9.5-112.8-28.4c-21.4-23.9-24.4-47.9-11.5-90.4
		c7.5-24.8,28-48.9,61.1-54c6-0.9,12.2-1,18.4-0.6c0.6,24.2,22.9,32.6,39.4,47.6c49.1,44.2,60.7,57.6,92.2,54.7c0,0,0,0.1,0,0.1l0,0
		v0c-0.9,2.8-1.6,5.7-2.4,8.7C361.3,449.4,350.4,468.2,375.3,478.6z"/>
	<path class="st9" d="M375.3,478.6c-25-10.4-14-29.2-5.5-63.8c0.7-3,1.5-5.8,2.4-8.7c4.3,9.7,7.9,19.5,10.8,29.1
		C390.8,460.9,386.4,473.2,375.3,478.6z"/>
	<path class="st3" d="M581.4,469.5c-23.5,27.2-45.4,22.1-96.8,20.8c-60-1.6-92.6-4.7-109.2-11.7c11.1-5.4,15.5-17.7,7.7-43.4
		c-2.9-9.5-6.5-19.4-10.8-29.1v0c0,0,0-0.1,0-0.1c1.8-0.2,3.7-0.4,5.6-0.7c45.8-6.4,79.6-32.7,80.1-64.4c0.1-5.9-0.2-12.1-1.5-18.4
		c19.5-4.4,41-4.7,63.7-2c49.2,5.9,75.3,21.5,84.4,36.8C621.5,386.2,605.8,441.2,581.4,469.5z"/>
	<path class="st10" d="M372.1,406.1c-31.5,2.9-43.1-10.5-92.2-54.7c-16.6-14.9-38.8-23.3-39.4-47.5c28.7,2.2,58.3,17.2,74.7,28.3
		C340.5,349.2,359.4,377.2,372.1,406.1z"/>
	<path class="st11" d="M458,341c-0.5,31.6-34.4,58-80.1,64.4c-1.9,0.3-3.8,0.5-5.6,0.7c14.8-49.5,45.3-74.6,84.3-83.4
		C457.7,329,458.1,335.1,458,341z"/>
	<path class="st4" d="M456.5,322.7c-38.9,8.8-69.5,33.9-84.3,83.4h-0.1c-12.7-28.9-31.6-56.8-56.9-73.9
		c-16.5-11.2-46-26.2-74.7-28.3c-0.1-5.5,0.8-11.9,3.3-19.4c15-45.6,95.5-57.8,154.5-26.2C438.7,279.8,452.5,302,456.5,322.7z"/>
</g>
<path class="st12" d="M485.6,89.7c0,0,2.8,10.8-3.4,18.4s26.6,34.8,26.6,34.8l17.3-3c0,0-3.8-33.1,1.3-41.4S485.6,89.7,485.6,89.7z"
	/>
<path class="st7" d="M485.7,90.4c0,0,2.8,10.8-3.4,18.4s26.6,34.8,26.6,34.8l17.3-3c0,0-3.8-33.1,1.3-41.4S485.7,90.4,485.7,90.4z"
	/>
<polygon class="st12" points="600.6,404.3 562.4,454.8 588.5,470 624.3,411.4 "/>
<path class="st13" d="M573.8,455.7c0,0-14-16.3-13.4-12.7s-10,34.5-0.1,37.5s94.6,10.9,95.8,1.3s-25.3-16.3-25.3-16.3
	s-15.7-15.1-19.2-13.6S573.8,455.7,573.8,455.7z"/>
<polygon class="st12" points="592,452.6 622.5,504.5 645.5,491.2 614.8,448.7 "/>
<path class="st13" d="M640.1,329.1l-9,12.8c0,0-43.1,59.9-38.5,64.7s23.6,23.1,33.3,19.6s44.1-64.7,44.1-64.7l-9-35.9L640.1,329.1z"
	/>
<path class="st13" d="M454.4,317c0,0,9.7,18,34.1,24.1s50,18.6,50.9,18.4s3.5-1.5,4.1,2.1s7.3,10,7.3,10s27,91.8,37.3,91.9
	s31.5-7.3,32-10.2s-31.6-96.7-31.9-98.5l-3.8-21.8c0,0,42.4,6.8,46.3,8s39.1,20.4,39.1,20.4s35.8-25.8,2.3-51.9
	s-91.1-45.2-91.1-45.2l-20.7-5.8l-18-1.1l-2.7-10.2l-42.7,2.5l-44.5,18.9L454.4,317z"/>
<path class="st12" d="M518.3,47.8c18.4,0,24.2,10.3,23.9,30.6c-0.3,24-13.1,32.7-31.4,32.7s-33.2-16.4-33.2-36.7
	S499.9,47.8,518.3,47.8z"/>
<path class="st13" d="M628,493.2c0,0-8.6,9.9-10.7,8.4s-7,19-2.6,22.9s21.5,10.4,21.6,16.9s45.9,5.2,47.5-1.6s-5.7-22.4-10.9-25.3
	c-5.2-2.9-24.3-29.2-24.3-29.2S633.6,487.6,628,493.2z"/>
<path class="st1" d="M471.1,261l-11.5-18.4l-1.3-4.3l-25.4-82.1l17.4-15.6c5-4.5,10.5-8.3,16.5-11.4l6.9-5.1c0,0,3-12.6,4.7-14.5
	c0.6-0.7,2-2.4,3.9-1.5c3.4,1.5,4.3,5,10.4,8.7c9.6,5.7,22.5,2.2,26.6-1.7c0.5-0.5,3.6-2.9,4.2-3.4c3.1-2.3,2.5-1.5,2.5-1.5
	c4.1,1.7,0.1,14.8,0.1,14.8s7.1,1.6,10.9,4.7c10.1,9.2,10.4,32.6,10.4,32.6s-9.4,53.6-7.7,57.3c0.6,15.3,15.7,38.3,15.7,38.3
	l6.4,18.9l-80.6,10.9c-0.5-0.7-1.1-1.4-1.8-2c-0.2-0.1-0.3-0.3-0.5-0.5C470.4,277.8,471.1,261,471.1,261z"/>
<g>
	<path class="st7" d="M550.8,287.5c0,0,29.3,13.3,33.6,35c4.3,21.7-39.2-18.4-39.2-18.4L550.8,287.5z"/>
	<path class="st7" d="M500.4,266.5c-0.2-0.2-2-0.2-2.3-0.4c-0.5-0.3-1.4-0.7-2-1.1c-3.6-2.7-8.5,1-8.2-1.1c0.5-3.4-2.2-0.3-4.1-0.8
		c-1.9-0.5-4.2,3.9-2.2-1.2c2-5,4.2-3.9,1-6.9c-3.2-3-4.7,0.2-3.2-3c1.4-3.2,3.6-3.6,1.4-4.7c-2.2-1.2-4.7,0.2-2.9-2.4
		c1.8-2.6,4.3-2.3,2-5.1c-2.3-2.7-2.2-1.2-1.7-3c0.1-0.5-0.4-4.2-1.4-9.3c-2.7-14.6-7.2-35.9-7.7-36.8c-0.7-1.2-23.7-18.3-23.7-18.3
		L432.8,157c0,0-13.6,17.2-3.9,49.2c9.6,31.9,9.4,41.6,9.4,41.6s-5.4,4.6,1.2,6.5c6.6,1.9,6.3,1.3,4,5.7c-2.3,4.4-7.4,0.9-2.3,4.4
		c5.1,3.5,7.5,0.7,6.7,5c-0.8,4.4-5,6.7-1.2,7.8c3.8,1.1,1.9,9.3,6.3,10c4.4,0.8,5.3-1.5,7.6,2.7c0.7,1.2,3.7-1.1,4.5,0
		c0.5,0.7,4.4,4.9,5,5.5c0.5,0.5,8.1,1.3,8.4,1.6L500.4,266.5z"/>
	<path id="Path_968_3_" class="st7" d="M496.6,271l31,11.2l23.6,5.6l1.3,16.1c-13.4,2.7-67.4-9.5-67.4-9.5L496.6,271z"/>
	<path id="Path_968_2_" class="st7" d="M474.8,274.3l26.1-7.6l5.2,7.6l-7,23c-11.2,2.1-20.7-0.2-20.7-0.2L474.8,274.3z"/>
</g>
<path class="st12" d="M547.2,287.4c0,0,28,12.7,32.1,33.4c4.1,20.7-37.5-17.6-37.5-17.6L547.2,287.4z"/>
<path class="st10" d="M490.4,68.6c1.3-0.3,1.5-2,1.5-3.3c0.2-5,4.2-7.1,8-9c3.8-1.9,7.9-2.8,12.1-2.8c4.2,0.1,9.6,0.3,15.3,0.4
	c1.3,0,2.5,0.3,3.7,0.7c3.4,1.2,7.6,3.5,7.8,3.2c0.1-0.1,0.8-9.9,0.9-12c0-0.6-0.9-3.4-3-4.9c-3.2-3.6-6.4-4-11.2-4.9
	c-5.6-0.9-11.2-1.2-16.9-1c-7.6,0.1-15.5,0.7-22.4,4s-12.7,9.9-13,17.5c-0.1,1.6-0.1,5.1-1.1,8.8c1.1,13.2,6,15.9,7.2,20.3l3.4-2.8
	c1.7-1.3,4.2-2.4,3.3-4.3l-2-7.6c-0.5-1.4-0.6-2.9-0.2-4.3C486,61.4,488.3,69.2,490.4,68.6z"/>
<path class="st1" d="M574,243.6l-23.7,2.1l-3.6-6l-3.4-13.9l-4.9-12.6l-4.6-16.2l-0.5-69.7l13.8,11.2l17.2,58.9c0,0,5.4,15.9,4,18.9
	c-0.4,0.8,0,2.2,0.6,3.5c1,2.2,1.3,1,1.9,3.2c0.7,2.5-0.9,2.4,0.1,3.8c1.1,1.8,2.7,2.3,2.7,5c0,3.4-1.4,0.8-0.3,5.1
	c0.8,1.5,2.9,0.3,3.9,1.6c0.3,0.4,0.4,1.5,0.5,2.4C577.7,242,575,243.5,574,243.6z"/>
<path class="st1" d="M499.1,267.3c-0.2-0.2-1.9-0.2-2.2-0.4c-0.4-0.3-1.4-0.7-1.9-1.1c-3.4-2.6-8.1,1-7.8-1.1
	c0.5-3.3-2.1-0.2-3.9-0.8s-4,3.7-2.1-1.1c1.9-4.8,4-3.7,0.9-6.6c-3.1-2.8-4.4,0.2-3.1-2.8c1.4-3,3.4-3.4,1.3-4.5
	c-2.1-1.1-4.4,0.2-2.8-2.3s4.1-2.2,1.9-4.8c-2.2-2.6-2.1-1.1-1.6-2.9c0.1-0.5-0.4-4-1.3-8.9c-2.5-14-7.9-39.4-8.3-40.3
	c-0.6-1.2-30.1-32.7-30.1-32.7l-5.4-0.1c0,0-11.3,22.1-2.1,52.6c9.2,30.5,9,39.7,9,39.7s-5.2,4.4,1.1,6.2c6.3,1.8,6,1.2,3.8,5.5
	s-7.1,0.9-2.2,4.2c4.9,3.4,7.1,0.6,6.4,4.8c-0.7,4.2-4.8,6.4-1.2,7.5s1.8,8.8,6,9.6c4.2,0.7,5-1.5,7.3,2.6c0.6,1.1,3.5-1,4.3,0
	c0.5,0.6,4.2,4.7,4.7,5.2c0.4,0.5,7.8,1.3,8,1.5L499.1,267.3z"/>
<path id="Path_968" class="st12" d="M495.4,271.5l29.6,10.7l22.5,5.4l1.3,15.3c-12.8,2.6-64.4-9.1-64.4-9.1L495.4,271.5z"/>
<path id="Path_968_1_" class="st1" d="M474.6,274.7l24.9-7.3l4.9,7.2l-6.7,22c-10.7,2-19.8-0.2-19.8-0.2L474.6,274.7z"/>
<path class="st12" d="M617.8,265.9c0,0,21.2,17.8,19.4,36.4S609.1,278,609.1,278L617.8,265.9z"/>
<path id="Path_968_5_" class="st12" d="M576.7,239.5l23.1,16.5l18.3,10.2l-2.8,13.4c-11.8-1-53.8-23.8-53.8-23.8L576.7,239.5z"/>
<path id="Path_968_4_" class="st1" d="M550.3,245.7l26.4-6.2l7.5,5.1l-11.6,17.2c-8.7-0.9-15.2-4.7-15.2-4.7L550.3,245.7z"/>
<path class="st10" d="M539.7,93.8c0,0-1.5,4.8-2.3,7c0,0,0.3,1.8-1.7,5c-1.9,3.2,0.6,2.3-5.1,4.8c-5.1,2.2,0.6,4.3-11.7,6.1
	c-4.1-1.3-8.3-3.2-10-3.6c-3.3,0.6-9.8-1.3-10.6-3c-0.8-1.7-14-9.6-13.9-14.5c0.3-11.5,2.2-11.8,2.2-11.8s8.8,6.9,18.3,11.7
	c3.2,1.6,13.3-3,20.8-2.8c11.6,0.3,5.2,5.4,10.6,3.5C537.6,95.7,538.5,95.5,539.7,93.8z"/>
</svg>
