<?xml version="1.0" encoding="utf-8"?>
<!-- Generator: Adobe Illustrator 22.1.0, SVG Export Plug-In . SVG Version: 6.00 Build 0)  -->
<svg version="1.1" id="Layer_1" xmlns="http://www.w3.org/2000/svg" xmlns:xlink="http://www.w3.org/1999/xlink" x="0px" y="0px"
	 viewBox="0 0 601.9 792.4" style="enable-background:new 0 0 601.9 792.4;" xml:space="preserve">
<style type="text/css">
	.st0{fill:none;stroke:#B3B3B3;stroke-miterlimit:10;}
	.st1{opacity:0.1;enable-background:new    ;}
	.st2{fill:#D6D6E3;}
	.st3{fill:url(#SVGID_1_);}
	.st4{fill:#F3B01B;}
	.st5{fill:#FFFFFF;}
	.st6{fill:#EE4436;}
	.st7{fill:#00AEB3;}
	.st8{fill:#444053;}
	.st9{fill:#DBDBDB;}
	.st10{fill:url(#SVGID_2_);}
	.st11{fill:url(#SVGID_3_);}
	.st12{fill:url(#SVGID_4_);}
	.st13{fill:url(#SVGID_5_);}
	.st14{fill:#1F1F2B;}
	.st15{fill:#4F4447;}
	.st16{fill:#F47F20;}
	.st17{fill:#258746;}
	.st18{fill:#E6E6E6;}
	.st19{opacity:0.2;enable-background:new    ;}
	.st20{fill:#3F3D56;}
</style>
<g>
	<path class="st0" d="M234.6,511.7c-11,26-41,69-62,79"/>
	<g>
		<g>
			<path class="st1" d="M51.5,683l-1.5-1.9c-0.7-0.8-0.5-2.1,0.3-2.7l29.6-23.2c0.8-0.7,2.1-0.5,2.7,0.3l1.5,1.9
				c0.7,0.8,0.5,2.1-0.3,2.7l-29.6,23.2C53.4,684,52.2,683.8,51.5,683z"/>
			<path class="st2" d="M51.3,682l-1.5-1.9c-0.7-0.8-0.5-2.1,0.3-2.7l29.6-23.2c0.8-0.7,2.1-0.5,2.7,0.3l1.5,1.9
				c0.7,0.8,0.5,2.1-0.3,2.7L54,682.3C53.2,683,52,682.9,51.3,682z"/>
			
				<rect x="48.5" y="595.7" transform="matrix(0.9812 -0.1931 0.1931 0.9812 -121.8053 21.7167)" class="st2" width="4" height="80"/>
			
				<rect x="65.3" y="583.2" transform="matrix(0.9812 -0.1931 0.1931 0.9812 -118.9791 24.7158)" class="st2" width="4" height="79"/>
		</g>
		<g>
			<g>
				<polygon class="st2" points="93.7,554.8 72.8,573.2 70.5,613.4 101.6,590 				"/>
				<polygon class="st2" points="93.7,554.8 73.1,573.8 39.1,562.5 59.7,543.6 				"/>
				
					<linearGradient id="SVGID_1_" gradientUnits="userSpaceOnUse" x1="39.0747" y1="153.7328" x2="93.6747" y2="153.7328" gradientTransform="matrix(1 0 0 -1 0 712.4655)">
					<stop  offset="0" style="stop-color:#808080;stop-opacity:0.25"/>
					<stop  offset="0.54" style="stop-color:#808080;stop-opacity:0.12"/>
					<stop  offset="1" style="stop-color:#808080;stop-opacity:0.1"/>
				</linearGradient>
				<polygon class="st3" points="93.7,554.8 73.1,573.8 39.1,562.5 59.7,543.6 				"/>
				<polygon class="st2" points="73.1,573.7 39.1,562.5 37.8,602.5 70.5,613.4 				"/>
				<polygon class="st1" points="73.1,573.7 39.1,562.5 37.8,602.5 70.5,613.4 				"/>
			</g>
			<g>
				<polygon class="st4" points="49.9,577.5 42.3,575.3 42.6,569.9 50.2,572.1 				"/>
				<polygon class="st5" points="69.8,579.5 62.5,577.4 62.7,575 69.9,577.1 				"/>
				<polygon class="st5" points="69,585.2 61.8,583.1 61.9,580.7 69.2,582.8 				"/>
				<polygon class="st6" points="49.5,584.9 41.9,582.7 42.2,577.3 49.8,579.5 				"/>
				<polygon class="st7" points="49.1,592.4 41.6,590.2 41.9,584.8 49.4,587 				"/>
			</g>
		</g>
		<polygon class="st8" points="212.3,624.2 75.6,576.7 92.7,560.1 230.6,605.3 		"/>
		<polygon class="st9" points="211.2,660.1 196.8,697.7 52.8,648.2 52.4,646.3 73.8,613 210.8,658.2 		"/>
		<polygon class="st2" points="210.8,658.2 196.4,695.7 52.4,646.3 73.4,611 		"/>
		
			<linearGradient id="SVGID_2_" gradientUnits="userSpaceOnUse" x1="52.3747" y1="57.0828" x2="211.1747" y2="57.0828" gradientTransform="matrix(1 0 0 -1 0 712.4655)">
			<stop  offset="0" style="stop-color:#808080;stop-opacity:0.25"/>
			<stop  offset="0.54" style="stop-color:#808080;stop-opacity:0.12"/>
			<stop  offset="1" style="stop-color:#808080;stop-opacity:0.1"/>
		</linearGradient>
		<polygon class="st10" points="211.2,660.1 196.8,697.7 52.8,648.2 52.4,646.3 73.8,613 210.8,658.2 		"/>
		
			<linearGradient id="SVGID_3_" gradientUnits="userSpaceOnUse" x1="52.3747" y1="59.0828" x2="210.7746" y2="59.0828" gradientTransform="matrix(1 0 0 -1 0 712.4655)">
			<stop  offset="0" style="stop-color:#808080;stop-opacity:0.25"/>
			<stop  offset="0.54" style="stop-color:#808080;stop-opacity:0.12"/>
			<stop  offset="1" style="stop-color:#808080;stop-opacity:0.1"/>
		</linearGradient>
		<polygon class="st11" points="210.8,658.2 196.4,695.7 52.4,646.3 73.4,611 		"/>
		<polygon class="st8" points="214.2,659.5 73.1,610.9 75.6,576.7 212.3,624.2 		"/>
		
			<linearGradient id="SVGID_4_" gradientUnits="userSpaceOnUse" x1="73.0747" y1="94.3328" x2="214.1747" y2="94.3328" gradientTransform="matrix(1 0 0 -1 0 712.4655)">
			<stop  offset="0" style="stop-color:#808080;stop-opacity:0.25"/>
			<stop  offset="0.54" style="stop-color:#808080;stop-opacity:0.12"/>
			<stop  offset="1" style="stop-color:#808080;stop-opacity:0.1"/>
		</linearGradient>
		<polygon class="st12" points="214.2,659.5 73.1,610.9 75.6,576.7 212.3,624.2 		"/>
		<g>
			<path class="st1" d="M253.4,744.7l-1.5-1.9c-0.7-0.8-0.5-2.1,0.3-2.7l29.6-23.2c0.8-0.7,2.1-0.5,2.7,0.3l1.5,1.9
				c0.7,0.8,0.5,2.1-0.3,2.7L256.1,745C255.3,745.7,254.1,745.5,253.4,744.7z"/>
			<path class="st2" d="M253.2,743.7l-1.5-1.9c-0.7-0.8-0.5-2.1,0.3-2.7l29.6-23.2c0.8-0.7,2.1-0.5,2.7,0.3l1.5,1.9
				c0.7,0.8,0.5,2.1-0.3,2.7L255.9,744C255.1,744.7,253.9,744.6,253.2,743.7z"/>
			
				<rect x="250.4" y="657.4" transform="matrix(0.9812 -0.1931 0.1931 0.9812 -129.9201 61.8649)" class="st2" width="4" height="80"/>
			
				<rect x="267.2" y="644.9" transform="matrix(0.9812 -0.1931 0.1931 0.9812 -127.0939 64.8639)" class="st2" width="4" height="79"/>
		</g>
		<g>
			<polygon class="st2" points="264.5,612 243.7,630.4 241.4,670.6 272.4,647.1 			"/>
			<polygon class="st2" points="264.5,612 243.9,630.9 209.9,619.6 230.6,600.7 			"/>
			
				<linearGradient id="SVGID_5_" gradientUnits="userSpaceOnUse" x1="209.8747" y1="96.6328" x2="264.4747" y2="96.6328" gradientTransform="matrix(1 0 0 -1 0 712.4655)">
				<stop  offset="0" style="stop-color:#808080;stop-opacity:0.25"/>
				<stop  offset="0.54" style="stop-color:#808080;stop-opacity:0.12"/>
				<stop  offset="1" style="stop-color:#808080;stop-opacity:0.1"/>
			</linearGradient>
			<polygon class="st13" points="264.5,612 243.9,630.9 209.9,619.6 230.6,600.7 			"/>
			<polygon class="st2" points="243.9,630.9 209.9,619.6 208.7,659.7 241.4,670.6 			"/>
			<polygon class="st1" points="243.9,630.9 209.9,619.6 208.7,659.7 241.4,670.6 			"/>
		</g>
		<polygon class="st14" points="208.1,654.6 206.7,647.8 76.7,603 78,609.9 		"/>
		<path class="st1" d="M195.1,645.2c0,0-27.1,17.1-25.1,64.6c2.1,47.5-13.1,71.3-23.5,76.5L39.3,749.4c0,0,26.2-14.9,25.1-62.6
			c-1.1-47.7,6.5-60.3,25.7-79.7L195.1,645.2z"/>
		<path class="st5" d="M192,645.6c0,0-25,18.2-22.9,64.6c2,46.5-12.8,69.8-23,74.8L41.2,748.9c0,0,25.6-14.6,24.6-61.3
			s4.7-59,23.4-78L192,645.6z"/>
		<polygon class="st5" points="239.7,643.5 213.3,635.5 214.2,628.6 240.6,636.6 		"/>
		<polygon class="st4" points="223.1,644.8 212.8,641.7 213.2,639 223.5,642.1 		"/>
		<polygon class="st6" points="238.8,649.3 228.5,646.2 228.8,643.5 239.1,646.7 		"/>
		<polygon class="st7" points="222.8,650.6 212.5,647.5 212.9,644.8 223.2,647.9 		"/>
		<polygon class="st4" points="238.5,655.2 228.2,652 228.6,649.4 238.8,652.5 		"/>
		<polygon class="st6" points="222.6,655.6 212.3,652.5 212.6,649.8 222.9,652.9 		"/>
		<polygon class="st7" points="238.3,660.1 228,657 228.3,654.3 238.6,657.5 		"/>
	</g>
	<g>
		<g>
			<path class="st6" d="M114.4,672.9c-3.1,0.1-7.9-2.2-12.2-3.2c-7.3-1.7-13.3-5.4-15.3-8.7c-2.6-4.2-2.6-7.6,1-12.8
				c2.1-3,6.4-5.4,11-4.6c0.8,0.1,1.6,0.4,2.4,0.7c-1.4,3.3,1.4,5.4,3.2,8.2c5.5,8.2,7.3,10.5,11.8,11.5l0,0l0,0l0,0
				c-0.2,0.3-0.4,0.7-0.5,1.1C113.9,669.5,111.6,671.1,114.4,672.9z"/>
			<path class="st15" d="M114.4,672.9c-2.8-1.8-0.5-3.4,1.5-7.7c0.2-0.4,0.4-0.7,0.5-1.1c0.4,1.5,0.7,3,0.8,4.4
				C117.6,672.3,116.2,672.8,114.4,672.9z"/>
			<path class="st7" d="M141.8,681.7c-5.2,2.4-7.4,0.2-13.9-2.8c-7.5-3.5-11.7-4.9-13.5-6.1c1.8-0.1,3.2-0.6,2.8-4.4
				c-0.1-1.4-0.4-2.9-0.8-4.4l0,0l0,0c0.3,0.1,0.5,0.1,0.8,0.2c6.7,1.2,12.1-0.9,12.9-5.2c0.1-0.8,0.2-1.6,0.2-2.6
				c2.9,0.3,5.9,1.2,9.1,2.6c6.9,3,10.3,6.3,11.2,8.8C152.2,672.5,147.2,679.2,141.8,681.7z"/>
			<path class="st16" d="M116.4,664.1c-4.6-1-6.3-3.3-11.8-11.5c-1.9-2.8-4.6-4.9-3.3-8.2c3.6,1.6,6.9,4.9,8.8,7.2
				C113.1,655,115.3,659.6,116.4,664.1z"/>
			<path class="st17" d="M130.1,659.1c-0.8,4.3-6.2,6.3-12.9,5.2c-0.3,0-0.6-0.1-0.8-0.2c3.2-6,8.1-8.1,13.9-7.5
				C130.4,657.4,130.3,658.3,130.1,659.1z"/>
			<path class="st4" d="M130.3,656.5c-5.8-0.5-10.7,1.5-13.9,7.5l0,0c-1.2-4.5-3.3-9.1-6.3-12.6c-1.9-2.2-5.2-5.6-8.8-7.2
				c0.3-0.8,0.9-1.6,1.7-2.5c5.2-5.5,15.6-3.6,21.6,3.3C128.8,649.9,130.3,653.6,130.3,656.5z"/>
		</g>
	</g>
	<g>
		<g>
			<path class="st18" d="M152.4,751.3c1.2-5.3-2.4-11.1-7.4-12.9s-9.7,1.2-10.9,6.5c-0.3,1.3-0.3,2.6-0.2,4l0,0
				c0.1,1.1,0.5,2.2,0.9,3.2l0,0c0,0.1,0.1,0.2,0.1,0.2c1.1,2.4,3.1,4.2,5.5,5.1c-2.6,6.7-4.2,9.8-9.5,15.5c0.4,0.1,0.6,0.2,1,0.3
				c3.3-3.8,4.6-5.9,6.6-10.1c0.7-0.1,1-0.1,1.7-0.2c0-0.2,0-0.3,0-0.5c-0.6,0.1-0.9,0.1-1.5,0.2c0.9-2,1.3-3,2.1-5.1
				C145.8,759.2,151.3,756.5,152.4,751.3z"/>
			<path class="st18" d="M126.1,737.1c1.1-6.3-3.1-13.2-9-15.3s-11.3,1.4-12.4,7.7c-0.3,1.5-0.3,3.1,0,4.7l0,0
				c0.2,1.3,0.6,2.6,1.2,3.8l0,0c0,0.1,0.1,0.2,0.1,0.3c1.4,2.8,3.8,5,6.6,6c-2.6,7.9-4.4,11.8-10.6,18.4c0.4,0.2,0.7,0.2,1.1,0.4
				c3.9-4.5,5.3-6.9,7.5-12c0.8-0.1,1.2-0.2,2-0.3c0-0.2,0-0.3-0.1-0.5c-0.7,0.1-1,0.1-1.7,0.2c1-2.4,1.4-3.6,2.1-6.1
				C118.9,746.4,125,743.2,126.1,737.1z"/>
			<path class="st18" d="M96,721.7c1.1-7.2-3.7-15-10.4-17.4s-13,1.6-14,8.8c-0.3,1.8-0.2,3.6,0.1,5.4c0,0,0,0,0-0.1
				c0.3,1.5,0.8,3,1.5,4.4l0,0c0.1,0.1,0.1,0.2,0.2,0.3c1.7,3.3,4.4,5.7,7.7,6.9c-2.6,9.2-4.4,13.6-11.4,21.2
				c0.5,0.2,0.8,0.3,1.3,0.5c4.4-5.1,5.9-7.9,8.2-13.8c0.9-0.1,1.3-0.2,2.2-0.3c0-0.3,0-0.4-0.1-0.6c-0.8,0.1-1.1,0.2-1.9,0.3
				c1-2.8,1.4-4.2,2.2-7.1C88.2,732.5,95,728.8,96,721.7z"/>
			<path class="st4" d="M153.6,687.2c4.2,1.5,8,7.3,7.3,12.2s-5.5,7.1-10,5.5s-7-6.4-6-11.2C145.9,689,149.4,685.8,153.6,687.2z"/>
			<path class="st7" d="M99.4,692.8c8.8,3.1,13.9,12.9,12.6,22.4s-9.9,14.7-18.5,11.5c-9-3.3-14.7-13.3-13.5-22.8
				C81.1,694.6,90.6,689.7,99.4,692.8z"/>
			<path class="st19" d="M86.1,694.1c-5.3,7.6-1.8,19.9,5,25.4c5.9,5.1,13.5,6,18.9,2.1c-4.7,7.5-14.9,8.1-22.4,1.6
				c-6.7-5.5-10-17.8-5.1-25.4C83.4,696.2,84.6,695,86.1,694.1z"/>
			<path class="st20" d="M96,709.6L96,709.6c-1.6,15.6-3.2,33.8-14.3,46c-0.7-0.2-1-0.4-1.7-0.6C91,742.2,93.9,725.8,96,709.6z"/>
			<path class="st20" d="M94.1,736c0.1,0.3,0.1,0.5,0.2,0.8c-1.2,0.2-1.8,0.3-3.1,0.5c-0.1-0.3-0.1-0.5-0.1-0.8
				C92.3,736.3,92.9,736.2,94.1,736z"/>
			<path class="st20" d="M105.6,763.6c0,0,0.9-1,2-0.5"/>
			<path class="st6" d="M107,761.4c0.3,0.1,0.4,0.4,0.2,0.7s-0.7,0.4-1,0.3c-0.3-0.1-0.4-0.4-0.2-0.7
				C106.2,761.5,106.7,761.3,107,761.4z"/>
			<path class="st20" d="M105.8,762.8c0.1,0,0.1,0,0.2,0.1c-0.3,0.4-0.5,0.6-0.9,1c-0.1,0-0.1,0-0.2-0.1
				C105.2,763.4,105.4,763.2,105.8,762.8z"/>
			<path class="st20" d="M64.7,748.9c0,0,0.9-1,2-0.5"/>
			<path class="st6" d="M66,746.8c0.3,0.1,0.4,0.4,0.2,0.7s-0.7,0.4-1,0.3c-0.3-0.1-0.4-0.4-0.2-0.7C65.2,746.8,65.7,746.7,66,746.8
				z"/>
			<path class="st20" d="M64.8,748.2c0.1,0,0.1,0,0.2,0.1c-0.3,0.4-0.5,0.6-0.9,1c-0.1,0-0.1,0-0.2-0.1
				C64.3,748.8,64.5,748.6,64.8,748.2z"/>
			<path class="st20" d="M74.3,752.4c0,0,0.9-1,2-0.5"/>
			<path class="st6" d="M75.7,750.3c0.3,0.1,0.4,0.4,0.2,0.7s-0.7,0.4-1,0.3s-0.4-0.4-0.2-0.7S75.3,750.2,75.7,750.3z"/>
			<path class="st20" d="M74.4,751.6c0.1,0,0.1,0,0.2,0.1c-0.3,0.4-0.5,0.6-0.9,1c-0.1,0-0.1,0-0.2-0.1
				C73.9,752.3,74.1,752.1,74.4,751.6z"/>
			<path class="st20" d="M116.6,706c0.6-0.2,0.8-0.3,1.4-0.6c-0.9-0.4-1.4,0-1.6,0.3c-0.7-0.6-1.5-0.4-1.5-0.4
				c0.9,0.7,1.3,1,2.2,1.7C117,706.6,116.8,706.3,116.6,706z"/>
			<path class="st20" d="M133,722.6c0.5-0.2,0.8-0.4,1.3-0.6c-0.9-0.4-1.4,0-1.6,0.3c-0.7-0.6-1.5-0.4-1.5-0.4
				c0.9,0.7,1.4,1.1,2.3,1.8C133.4,723.3,133.2,723,133,722.6z"/>
			<path class="st20" d="M112.3,724.6c0.5-0.2,0.8-0.4,1.3-0.6c-0.9-0.4-1.4,0-1.6,0.3c-0.7-0.6-1.5-0.4-1.5-0.4
				c0.9,0.7,1.3,1.1,2.2,1.8C112.7,725.3,112.5,724.9,112.3,724.6z"/>
			<path class="st20" d="M121.5,769.7c0,0,1-1,2-0.5"/>
			<path class="st20" d="M110.4,765.8c0,0,1-1,2-0.5"/>
			<path class="st20" d="M69.8,751.4c0,0,1-1,2-0.5"/>
			<path class="st20" d="M126.6,771.5c0,0,1-1,2-0.5"/>
			<path class="st20" d="M124.2,770.6c0,0,1-1,2-0.5"/>
			<path class="st20" d="M119.4,768.9c0,0,0.8-1.1-0.4-1.4"/>
			<path class="st20" d="M100.1,762.1c0,0,0.9-1.1-0.4-1.4"/>
			<path class="st20" d="M84.1,756.5c0,0,0.8-1.1-0.4-1.4"/>
			<path class="st20" d="M67.2,750.5c0,0,0.8-1.1-0.4-1.4"/>
			<path class="st20" d="M131.6,773.2c0,0,0.8-1.1-0.4-1.4"/>
			<path class="st20" d="M124.3,770.8c0,0,0.9-1.1-0.4-1.4"/>
		</g>
	</g>
</g>
</svg>
