<?xml version="1.0" encoding="utf-8"?>
<!-- Generator: Adobe Illustrator 22.1.0, SVG Export Plug-In . SVG Version: 6.00 Build 0)  -->
<svg version="1.1" id="Layer_1" xmlns="http://www.w3.org/2000/svg" xmlns:xlink="http://www.w3.org/1999/xlink" x="0px" y="0px"
	 viewBox="0 0 601.9 792.4" style="enable-background:new 0 0 601.9 792.4;" xml:space="preserve">
<style type="text/css">
	.st0{fill:none;stroke:#B3B3B3;stroke-miterlimit:10;}
	.st1{fill:#E6E6E6;}
	.st2{opacity:5.000000e-02;enable-background:new    ;}
	.st3{fill:#444053;}
	.st4{fill:#EE4436;}
</style>
<g>
	<path class="st0" d="M285,340.4c0,0,1.6,43.3-25.4,84.3"/>
	<path class="st1" d="M191.4,410.9l125.4,24.5c20.6,4,35.3,17.8,32.8,30.9l-8.3,42.7c-2.5,13-21.3,20.3-42,16.3l-125.4-24.5
		c-20.6-4-35.3-17.8-32.8-30.9l8.3-42.7C152,414.1,170.8,406.8,191.4,410.9z"/>
	<path class="st2" d="M191.4,410.9l125.4,24.5c20.6,4,35.3,17.8,32.8,30.9l-8.3,42.7c-2.5,13,3.6-40.9-9.1-53.7
		c-9-9-19.5-12-19.5-12l-101.6-21.1c0,0-31-8-45,0c-15.7,8.9-27.5,60.7-24.9,47.6l8.3-42.7C152,414.1,170.8,406.8,191.4,410.9z"/>
	<g class="st2">
		<path d="M168.1,456.1l-6-14.7c-0.2-0.6,0.2-1.1,0.8-1l5.1,1c0.3,0.1,0.5,0.3,0.6,0.5l3.8,9l7-6.9c0.1-0.1,0.3-0.3,0.7-0.2l5.1,1
			c0.6,0.1,0.8,0.8,0.4,1.2l-11.3,11.2l-2.5,12.4c-0.1,0.4-0.5,0.7-0.9,0.6l-4.6-0.9c-0.4-0.1-0.7-0.5-0.6-0.9L168.1,456.1z"/>
		<path d="M200.3,447.4c7.8,1.5,12.7,9,11.2,16.8s-9,12.7-16.8,11.2s-12.7-9-11.2-16.7S192.6,445.9,200.3,447.4z M196,469.2
			c4.3,0.9,8.5-1.9,9.3-6.2c0.9-4.3-1.9-8.5-6.2-9.4c-4.2-0.8-8.4,2-9.3,6.3C189,464.2,191.8,468.3,196,469.2z"/>
		<path d="M218.4,452.2c0.1-0.4,0.5-0.7,0.9-0.6l4.8,1c0.4,0.1,0.7,0.5,0.6,0.9l-3.1,15.7c-0.5,2.7,1,5.3,3.8,5.8
			c2.8,0.6,5.3-1.2,5.8-3.9l3.1-15.7c0.1-0.4,0.5-0.7,0.9-0.6l4.8,1c0.4,0.1,0.7,0.5,0.6,0.9l-3.2,16.1c-1.2,5.9-7.1,9.8-13.3,8.6
			c-6.1-1.2-10.1-7.1-8.9-13L218.4,452.2z"/>
		<path d="M246.8,457.9c0.1-0.4,0.5-0.7,0.9-0.6l11.6,2.3c4.7,0.9,7.7,5.5,6.8,10.1c-0.7,3.6-3.7,6-7.3,6.7l3.4,10.9
			c0.2,0.6-0.2,1.1-0.9,1l-5.2-1c-0.3-0.1-0.5-0.3-0.6-0.5l-3.1-11.3l-2.7-0.5l-2,9.9c-0.1,0.4-0.5,0.7-0.9,0.6l-4.6-0.9
			c-0.4-0.1-0.7-0.5-0.6-0.9L246.8,457.9z M256.5,471.1c1.6,0.3,3.2-0.9,3.6-2.5c0.3-1.6-0.8-3.2-2.4-3.5l-5.8-1.1l-1.2,6.1
			L256.5,471.1z"/>
		<path d="M293.7,466c3.9,0.8,6.5,2.6,8.7,5.5c0.3,0.4,0.2,0.8-0.2,1.1l-3.7,2.5c-0.3,0.2-0.8,0.1-1-0.2c-1.2-1.6-2.9-2.6-4.9-3
			c-4.4-0.9-8.3,2.1-9.2,6.5c-0.9,4.3,1.7,8.5,6.1,9.4c1.8,0.4,3.9,0.1,5.6-0.8c0.3-0.2,0.8-0.1,1,0.2l2.4,3.8
			c0.2,0.3,0.1,0.8-0.2,1c-3.2,2-6.7,2.6-10.2,1.9c-7.8-1.5-12.8-9-11.2-16.7C278.4,469.5,285.9,464.5,293.7,466z"/>
		<path d="M310.5,481.5c4.4,0.9,7.3,5.3,6.5,9.7c-0.9,4.5-5.3,7.5-9.7,6.6c-4.4-0.9-7.3-5.3-6.4-9.8
			C301.6,483.6,306,480.6,310.5,481.5z M308.2,492.8c1.7,0.3,3.4-0.8,3.7-2.6c0.3-1.7-0.7-3.4-2.4-3.7c-1.7-0.3-3.3,0.8-3.7,2.5
			C305.4,490.8,306.5,492.5,308.2,492.8z"/>
		<path d="M322.4,493.2c2,0.4,3.4,2.5,3,4.5s-2.4,3.3-4.5,2.9c-2-0.4-3.3-2.4-2.9-4.4S320.4,492.8,322.4,493.2z"/>
	</g>
	<g>
		<path class="st3" d="M170.1,454.1l-6-14.7c-0.2-0.6,0.2-1.1,0.8-1l5.1,1c0.3,0.1,0.5,0.3,0.6,0.5l3.8,9l7-6.9
			c0.1-0.1,0.3-0.3,0.7-0.2l5.1,1c0.6,0.1,0.8,0.8,0.4,1.2l-11.3,11.2l-2.5,12.4c-0.1,0.4-0.5,0.7-0.9,0.6l-4.6-0.9
			c-0.4-0.1-0.7-0.5-0.6-0.9L170.1,454.1z"/>
		<path class="st3" d="M202.3,445.4c7.8,1.5,12.7,9,11.2,16.8s-9,12.7-16.8,11.2s-12.7-9-11.2-16.7S194.6,443.9,202.3,445.4z
			 M198,467.2c4.3,0.9,8.5-1.9,9.3-6.2c0.9-4.3-1.9-8.5-6.2-9.4c-4.2-0.8-8.4,2-9.3,6.3C191,462.2,193.8,466.3,198,467.2z"/>
		<path class="st3" d="M220.4,450.2c0.1-0.4,0.5-0.7,0.9-0.6l4.8,1c0.4,0.1,0.7,0.5,0.6,0.9l-3.1,15.7c-0.5,2.7,1,5.3,3.8,5.8
			c2.8,0.6,5.3-1.2,5.8-3.9l3.1-15.7c0.1-0.4,0.5-0.7,0.9-0.6l4.8,1c0.4,0.1,0.7,0.5,0.6,0.9l-3.2,16.1c-1.2,5.9-7.1,9.8-13.3,8.6
			c-6.1-1.2-10.1-7.1-8.9-13L220.4,450.2z"/>
		<path class="st3" d="M248.8,455.9c0.1-0.4,0.5-0.7,0.9-0.6l11.6,2.3c4.7,0.9,7.7,5.5,6.8,10.1c-0.7,3.6-3.7,6-7.3,6.7l3.4,10.9
			c0.2,0.6-0.2,1.1-0.9,1l-5.2-1c-0.3-0.1-0.5-0.3-0.6-0.5l-3.1-11.3l-2.7-0.5l-2,9.9c-0.1,0.4-0.5,0.7-0.9,0.6l-4.6-0.9
			c-0.4-0.1-0.7-0.5-0.6-0.9L248.8,455.9z M258.5,469.1c1.6,0.3,3.2-0.9,3.6-2.5c0.3-1.6-0.8-3.2-2.4-3.5l-5.8-1.1l-1.2,6.1
			L258.5,469.1z"/>
		<path class="st3" d="M295.7,464c3.9,0.8,6.5,2.6,8.7,5.5c0.3,0.4,0.2,0.8-0.2,1.1l-3.7,2.5c-0.3,0.2-0.8,0.1-1-0.2
			c-1.2-1.6-2.9-2.6-4.9-3c-4.4-0.9-8.3,2.1-9.2,6.5c-0.9,4.3,1.7,8.5,6.1,9.4c1.8,0.4,3.9,0.1,5.6-0.8c0.3-0.2,0.8-0.1,1,0.2
			l2.4,3.8c0.2,0.3,0.1,0.8-0.2,1c-3.2,2-6.7,2.6-10.2,1.9c-7.8-1.5-12.8-9-11.2-16.7C280.4,467.5,287.9,462.5,295.7,464z"/>
		<path class="st3" d="M312.5,479.5c4.4,0.9,7.3,5.3,6.5,9.7c-0.9,4.5-5.3,7.5-9.7,6.6c-4.4-0.9-7.3-5.3-6.4-9.8
			C303.6,481.6,308,478.6,312.5,479.5z M310.2,490.8c1.7,0.3,3.4-0.8,3.7-2.6c0.3-1.7-0.7-3.4-2.4-3.7c-1.7-0.3-3.3,0.8-3.7,2.5
			C307.4,488.8,308.5,490.5,310.2,490.8z"/>
		<path class="st4" d="M324.4,491.2c2,0.4,3.4,2.5,3,4.5s-2.4,3.3-4.5,2.9c-2-0.4-3.3-2.4-2.9-4.4S322.4,490.8,324.4,491.2z"/>
	</g>
</g>
</svg>
