<?xml version="1.0" encoding="utf-8"?>
<!-- Generator: Adobe Illustrator 22.1.0, SVG Export Plug-In . SVG Version: 6.00 Build 0)  -->
<svg version="1.1" id="Layer_1" xmlns="http://www.w3.org/2000/svg" xmlns:xlink="http://www.w3.org/1999/xlink" x="0px" y="0px"
	 viewBox="0 0 1920 1080" style="enable-background:new 0 0 1920 1080;" xml:space="preserve">
<style type="text/css">
	.st0{fill:none;stroke:#B3B3B3;stroke-miterlimit:10;}
	.st1{fill:#E6E6E6;}
	.st2{opacity:5.000000e-02;enable-background:new    ;}
	.st3{fill:#444053;}
	.st4{opacity:0.1;}
	.st5{fill:#EE4436;}
	.st6{fill:#4F4447;}
	.st7{fill:#00AEB3;}
	.st8{fill:#F47F20;}
	.st9{fill:#258746;}
	.st10{fill:#F3B01B;}
	.st11{opacity:0.1;fill:#00AEB3;}
	.st12{fill:#D6D6E3;}
	.st13{fill:url(#SVGID_1_);}
	.st14{opacity:0.1;enable-background:new    ;}
	.st15{fill:#FFFFFF;}
	.st16{fill:#DBDBDB;}
	.st17{fill:url(#SVGID_2_);}
	.st18{fill:url(#SVGID_3_);}
	.st19{fill:url(#SVGID_4_);}
	.st20{fill:url(#SVGID_5_);}
	.st21{fill:#1F1F2B;}
	.st22{opacity:0.2;enable-background:new    ;}
	.st23{fill:#3F3D56;}
</style>
<path class="st0" d="M1191.9,524.2c0,0,1.6,43.3-25.4,84.3"/>
<path class="st0" d="M1141.5,695.5c-11,26-41,69-62,79"/>
<path class="st1" d="M1098.3,594.7l125.4,24.5c20.6,4,35.3,17.8,32.8,30.9l-8.3,42.7c-2.5,13-21.3,20.3-42,16.3l-125.4-24.5
	c-20.6-4-35.3-17.8-32.8-30.9l8.3-42.7C1058.9,597.9,1077.7,590.6,1098.3,594.7z"/>
<path class="st2" d="M1098.3,594.7l125.4,24.5c20.6,4,35.3,17.8,32.8,30.9l-8.3,42.7c-2.5,13,3.6-40.9-9.1-53.7
	c-9-9-19.5-12-19.5-12L1118,606c0,0-31-8-45,0c-15.7,8.9-27.5,60.7-24.9,47.6l8.3-42.7C1058.9,597.9,1077.7,590.6,1098.3,594.7z"/>
<rect x="1176" y="449.7" transform="matrix(7.996374e-02 -0.9968 0.9968 7.996374e-02 593.3147 1658.0392)" class="st3" width="37.8" height="115.8"/>
<g class="st4">
	<path d="M1200.2,505.4c-24.7,12.3-75.6-3.3-115.3-1.9c-66.9,2.3-122.4-12.5-144.1-37.4c-27.4-31.4-31.1-62.9-14.7-118.8
		c9.6-32.6,35.7-64.3,78.2-70.9c7.7-1.2,15.6-1.4,23.6-0.7c0.8,31.8,29.2,42.9,50.4,62.5c62.8,58.1,77.6,75.7,117.9,71.9
		c0,0.1,0,0.1,0.1,0.1l0,0v0c-1.1,3.7-2.1,7.5-3,11.4C1182.3,467,1168.3,491.8,1200.2,505.4z"/>
	<path d="M1200.2,505.4c-31.9-13.7-17.9-38.4-7-83.8c0.9-3.9,1.9-7.7,3-11.4c5.5,12.7,10.1,25.6,13.8,38.2
		C1220,482.2,1214.4,498.4,1200.2,505.4z"/>
	<path d="M1463.6,493.5c-30,35.8-58.1,29.1-123.8,27.3c-76.6-2.1-118.4-6.2-139.6-15.3c14.2-7.1,19.8-23.2,9.8-57
		c-3.7-12.5-8.3-25.4-13.8-38.2v0c0-0.1,0-0.1,0-0.2c2.3-0.2,4.7-0.5,7.1-0.9c58.5-8.4,101.8-43,102.5-84.6
		c0.1-7.8-2.5-17.4-4.1-25.6c24.9-5.8,51.2-9.3,80.2-5.7c62.8,7.8,103.1,31.4,114.6,51.6C1518.2,382.6,1494.9,456.3,1463.6,493.5z"
		/>
	<path d="M1196.1,410.1c-40.3,3.8-55.1-13.8-117.9-71.9c-21.2-19.6-49.7-30.7-50.4-62.5c36.7,2.9,74.5,22.6,95.5,37.2
		C1155.7,335.4,1179.9,372.1,1196.1,410.1z"/>
	<path d="M1305.9,324.6c-0.7,41.6-43.9,76.2-102.5,84.6c-2.5,0.4-4.9,0.6-7.1,0.9c18.9-65,57.9-98,107.7-109.6
		C1305.6,308.8,1306,316.8,1305.9,324.6z"/>
	<path d="M1307.5,304.7c-49.8,11.6-92.4,40.3-111.3,105.4h-0.1c-16.3-37.9-40.4-74.7-72.8-97.2c-21.1-14.7-58.8-34.4-95.5-37.2
		c-0.2-7.3,1.1-15.6,4.2-25.4c19.1-59.9,122.1-75.9,197.5-34.4C1281.2,244.2,1302.4,277.6,1307.5,304.7z"/>
</g>
<g>
	<path class="st5" d="M1200.4,498.5c-24.3,11.8-74.3-3.1-113.3-1.8c-65.8,2.2-120.3-11.9-141.7-35.7
		c-26.9-30.1-30.6-60.2-14.4-113.6c9.5-31.2,35.1-61.5,76.8-67.8c7.6-1.1,15.3-1.3,23.2-0.7c0.8,30.4,28.7,41,49.6,59.8
		c61.7,55.6,76.3,72.4,115.8,68.8c0,0.1,0,0.1,0.1,0.1l0,0v0c-1.1,3.5-2.1,7.1-3,10.9C1182.7,461.8,1169,485.5,1200.4,498.5z"/>
	<path class="st6" d="M1200.4,498.5c-31.4-13.1-17.6-36.7-6.9-80.1c0.9-3.7,1.9-7.3,3-10.9c5.4,12.2,9.9,24.5,13.5,36.5
		C1219.8,476.3,1214.3,491.8,1200.4,498.5z"/>
	<path class="st7" d="M1459.3,487.1c-29.5,34.2-57.1,27.8-121.7,26.1c-75.3-2-116.3-6-137.2-14.7c13.9-6.8,19.4-22.2,9.6-54.5
		c-3.6-12-8.2-24.3-13.5-36.5v0c0-0.1,0-0.1,0-0.2c2.3-0.2,4.6-0.5,7-0.8c57.5-8,100-41.1,100.7-80.9c0.1-7.5-0.3-15.2-1.8-23.1
		c24.4-5.5,51.5-5.9,80.1-2.5c61.8,7.5,94.7,27,106,46.3C1509.7,382.5,1490,451.5,1459.3,487.1z"/>
	<path class="st8" d="M1196.4,407.4c-39.6,3.7-54.2-13.2-115.8-68.8c-20.8-18.8-48.8-29.3-49.6-59.7c36.1,2.7,73.2,21.6,93.9,35.6
		C1156.7,336,1180.4,371.1,1196.4,407.4z"/>
	<path class="st9" d="M1304.2,325.7c-0.7,39.8-43.2,72.8-100.7,80.9c-2.4,0.3-4.8,0.6-7,0.8c18.5-62.2,56.9-93.7,105.9-104.8
		C1303.9,310.5,1304.3,318.2,1304.2,325.7z"/>
	<path class="st10" d="M1302.4,302.6c-48.9,11.1-87.3,42.6-105.9,104.8h-0.1c-16-36.3-39.7-71.4-71.5-92.9
		c-20.7-14-57.8-32.9-93.9-35.6c-0.2-7,1.1-15,4.1-24.3c18.8-57.3,120-72.6,194.1-32.9C1280,248.8,1297.3,276.7,1302.4,302.6z"/>
</g>
<path class="st11" d="M1433,910.2c0-111.6,115.5-152.3,152.3-152.3c76.6,0,107.9,66.6,169,66.6c76.2,0,131.1,57.1,123.7,98.7
	c-9.5,53.6-70.9,47.7-204.5,47.7C1495.3,970.9,1433,952.9,1433,910.2z"/>
<path class="st11" d="M13,1014.1c0-67.1,111.5-90.8,133.6-90.8c46.1,0,81.6,28.8,117.7,35.5c46.7,8.7,77.6,30.3,73.3,55.3
	c-8.4,49.9-80.8,49.9-161.1,49.9C69.4,1064,13,1039.8,13,1014.1z"/>
<path class="st11" d="M474,725.9c0-65.8,53.3-90.2,75-90.2c45.2,0,66.3,46.3,101.9,51.4c31.6,4.5,119.1,26.4,105.8,47.4
	c-16.7,26.3-41.8,28.1-120.6,28.1C531.1,762.6,474,751.1,474,725.9z"/>
<g class="st2">
	<path d="M1075,639.9l-6-14.7c-0.2-0.6,0.2-1.1,0.8-1l5.1,1c0.3,0.1,0.5,0.3,0.6,0.5l3.8,9l7-6.9c0.1-0.1,0.3-0.3,0.7-0.2l5.1,1
		c0.6,0.1,0.8,0.8,0.4,1.2l-11.3,11.2l-2.5,12.4c-0.1,0.4-0.5,0.7-0.9,0.6l-4.6-0.9c-0.4-0.1-0.7-0.5-0.6-0.9L1075,639.9z"/>
	<path d="M1107.2,631.2c7.8,1.5,12.7,9,11.2,16.8c-1.5,7.8-9,12.7-16.8,11.2s-12.7-9-11.2-16.7S1099.5,629.7,1107.2,631.2z
		 M1102.9,653c4.3,0.9,8.5-1.9,9.3-6.2c0.9-4.3-1.9-8.5-6.2-9.4c-4.2-0.8-8.4,2-9.3,6.3C1095.9,648,1098.7,652.1,1102.9,653z"/>
	<path d="M1125.3,636c0.1-0.4,0.5-0.7,0.9-0.6l4.8,1c0.4,0.1,0.7,0.5,0.6,0.9l-3.1,15.7c-0.5,2.7,1,5.3,3.8,5.8
		c2.8,0.6,5.3-1.2,5.8-3.9l3.1-15.7c0.1-0.4,0.5-0.7,0.9-0.6l4.8,1c0.4,0.1,0.7,0.5,0.6,0.9l-3.2,16.1c-1.2,5.9-7.1,9.8-13.3,8.6
		c-6.1-1.2-10.1-7.1-8.9-13L1125.3,636z"/>
	<path d="M1153.7,641.7c0.1-0.4,0.5-0.7,0.9-0.6l11.6,2.3c4.7,0.9,7.7,5.5,6.8,10.1c-0.7,3.6-3.7,6-7.3,6.7l3.4,10.9
		c0.2,0.6-0.2,1.1-0.9,1l-5.2-1c-0.3-0.1-0.5-0.3-0.6-0.5l-3.1-11.3l-2.7-0.5l-2,9.9c-0.1,0.4-0.5,0.7-0.9,0.6l-4.6-0.9
		c-0.4-0.1-0.7-0.5-0.6-0.9L1153.7,641.7z M1163.4,654.9c1.6,0.3,3.2-0.9,3.6-2.5c0.3-1.6-0.8-3.2-2.4-3.5l-5.8-1.1l-1.2,6.1
		L1163.4,654.9z"/>
	<path d="M1200.6,649.8c3.9,0.8,6.5,2.6,8.7,5.5c0.3,0.4,0.2,0.8-0.2,1.1l-3.7,2.5c-0.3,0.2-0.8,0.1-1-0.2c-1.2-1.6-2.9-2.6-4.9-3
		c-4.4-0.9-8.3,2.1-9.2,6.5c-0.9,4.3,1.7,8.5,6.1,9.4c1.8,0.4,3.9,0.1,5.6-0.8c0.3-0.2,0.8-0.1,1,0.2l2.4,3.8c0.2,0.3,0.1,0.8-0.2,1
		c-3.2,2-6.7,2.6-10.2,1.9c-7.8-1.5-12.8-9-11.2-16.7C1185.3,653.3,1192.8,648.3,1200.6,649.8z"/>
	<path d="M1217.4,665.3c4.4,0.9,7.3,5.3,6.5,9.7c-0.9,4.5-5.3,7.5-9.7,6.6c-4.4-0.9-7.3-5.3-6.4-9.8
		C1208.5,667.4,1212.9,664.4,1217.4,665.3z M1215.1,676.6c1.7,0.3,3.4-0.8,3.7-2.6c0.3-1.7-0.7-3.4-2.4-3.7
		c-1.7-0.3-3.3,0.8-3.7,2.5C1212.3,674.6,1213.4,676.3,1215.1,676.6z"/>
	<path d="M1229.3,677c2,0.4,3.4,2.5,3,4.5c-0.4,2-2.4,3.3-4.5,2.9c-2-0.4-3.3-2.4-2.9-4.4C1225.3,678,1227.3,676.6,1229.3,677z"/>
</g>
<g>
	<path class="st3" d="M1077,637.9l-6-14.7c-0.2-0.6,0.2-1.1,0.8-1l5.1,1c0.3,0.1,0.5,0.3,0.6,0.5l3.8,9l7-6.9
		c0.1-0.1,0.3-0.3,0.7-0.2l5.1,1c0.6,0.1,0.8,0.8,0.4,1.2l-11.3,11.2l-2.5,12.4c-0.1,0.4-0.5,0.7-0.9,0.6l-4.6-0.9
		c-0.4-0.1-0.7-0.5-0.6-0.9L1077,637.9z"/>
	<path class="st3" d="M1109.2,629.2c7.8,1.5,12.7,9,11.2,16.8c-1.5,7.8-9,12.7-16.8,11.2s-12.7-9-11.2-16.7
		S1101.5,627.7,1109.2,629.2z M1104.9,651c4.3,0.9,8.5-1.9,9.3-6.2c0.9-4.3-1.9-8.5-6.2-9.4c-4.2-0.8-8.4,2-9.3,6.3
		C1097.9,646,1100.7,650.1,1104.9,651z"/>
	<path class="st3" d="M1127.3,634c0.1-0.4,0.5-0.7,0.9-0.6l4.8,1c0.4,0.1,0.7,0.5,0.6,0.9l-3.1,15.7c-0.5,2.7,1,5.3,3.8,5.8
		c2.8,0.6,5.3-1.2,5.8-3.9l3.1-15.7c0.1-0.4,0.5-0.7,0.9-0.6l4.8,1c0.4,0.1,0.7,0.5,0.6,0.9l-3.2,16.1c-1.2,5.9-7.1,9.8-13.3,8.6
		c-6.1-1.2-10.1-7.1-8.9-13L1127.3,634z"/>
	<path class="st3" d="M1155.7,639.7c0.1-0.4,0.5-0.7,0.9-0.6l11.6,2.3c4.7,0.9,7.7,5.5,6.8,10.1c-0.7,3.6-3.7,6-7.3,6.7l3.4,10.9
		c0.2,0.6-0.2,1.1-0.9,1l-5.2-1c-0.3-0.1-0.5-0.3-0.6-0.5l-3.1-11.3l-2.7-0.5l-2,9.9c-0.1,0.4-0.5,0.7-0.9,0.6l-4.6-0.9
		c-0.4-0.1-0.7-0.5-0.6-0.9L1155.7,639.7z M1165.4,652.9c1.6,0.3,3.2-0.9,3.6-2.5c0.3-1.6-0.8-3.2-2.4-3.5l-5.8-1.1l-1.2,6.1
		L1165.4,652.9z"/>
	<path class="st3" d="M1202.6,647.8c3.9,0.8,6.5,2.6,8.7,5.5c0.3,0.4,0.2,0.8-0.2,1.1l-3.7,2.5c-0.3,0.2-0.8,0.1-1-0.2
		c-1.2-1.6-2.9-2.6-4.9-3c-4.4-0.9-8.3,2.1-9.2,6.5c-0.9,4.3,1.7,8.5,6.1,9.4c1.8,0.4,3.9,0.1,5.6-0.8c0.3-0.2,0.8-0.1,1,0.2
		l2.4,3.8c0.2,0.3,0.1,0.8-0.2,1c-3.2,2-6.7,2.6-10.2,1.9c-7.8-1.5-12.8-9-11.2-16.7C1187.3,651.3,1194.8,646.3,1202.6,647.8z"/>
	<path class="st3" d="M1219.4,663.3c4.4,0.9,7.3,5.3,6.5,9.7c-0.9,4.5-5.3,7.5-9.7,6.6c-4.4-0.9-7.3-5.3-6.4-9.8
		C1210.5,665.4,1214.9,662.4,1219.4,663.3z M1217.1,674.6c1.7,0.3,3.4-0.8,3.7-2.6c0.3-1.7-0.7-3.4-2.4-3.7
		c-1.7-0.3-3.3,0.8-3.7,2.5C1214.3,672.6,1215.4,674.3,1217.1,674.6z"/>
	<path class="st5" d="M1231.3,675c2,0.4,3.4,2.5,3,4.5c-0.4,2-2.4,3.3-4.5,2.9c-2-0.4-3.3-2.4-2.9-4.4
		C1227.3,676,1229.3,674.6,1231.3,675z"/>
</g>
<g>
	<g>
		<path class="st4" d="M958.4,866.8l-1.5-1.9c-0.7-0.8-0.5-2.1,0.3-2.7l29.6-23.2c0.8-0.7,2.1-0.5,2.7,0.3l1.5,1.9
			c0.7,0.8,0.5,2.1-0.3,2.7l-29.6,23.2C960.3,867.8,959.1,867.6,958.4,866.8z"/>
		<path class="st12" d="M958.2,865.8l-1.5-1.9c-0.7-0.8-0.5-2.1,0.3-2.7l29.6-23.2c0.8-0.7,2.1-0.5,2.7,0.3l1.5,1.9
			c0.7,0.8,0.5,2.1-0.3,2.7l-29.6,23.2C960.1,866.8,958.9,866.7,958.2,865.8z"/>
		
			<rect x="955.4" y="779.5" transform="matrix(0.9812 -0.1931 0.1931 0.9812 -140.2161 200.2719)" class="st12" width="4" height="80"/>
		
			<rect x="972.2" y="767" transform="matrix(0.9812 -0.1931 0.1931 0.9812 -137.3917 203.2728)" class="st12" width="4" height="79"/>
	</g>
	<g>
		<g>
			<polygon class="st12" points="1000.6,738.6 979.7,757 977.4,797.2 1008.5,773.8 			"/>
			<polygon class="st12" points="1000.6,738.6 980,757.6 946,746.3 966.6,727.4 			"/>
			<linearGradient id="SVGID_1_" gradientUnits="userSpaceOnUse" x1="946.0136" y1="742.474" x2="1000.569" y2="742.474">
				<stop  offset="0" style="stop-color:#808080;stop-opacity:0.25"/>
				<stop  offset="0.54" style="stop-color:#808080;stop-opacity:0.12"/>
				<stop  offset="1" style="stop-color:#808080;stop-opacity:0.1"/>
			</linearGradient>
			<polygon class="st13" points="1000.6,738.6 980,757.6 946,746.3 966.6,727.4 			"/>
			<polygon class="st12" points="980,757.5 946,746.3 944.7,786.3 977.4,797.2 			"/>
			<polygon class="st14" points="980,757.5 946,746.3 944.7,786.3 977.4,797.2 			"/>
		</g>
		<g>
			<polygon class="st10" points="956.8,761.3 949.2,759.1 949.5,753.7 957.1,755.9 			"/>
			<polygon class="st15" points="976.7,763.3 969.4,761.2 969.6,758.8 976.8,760.9 			"/>
			<polygon class="st15" points="975.9,769 968.7,766.9 968.8,764.5 976.1,766.6 			"/>
			<polygon class="st5" points="956.4,768.7 948.8,766.5 949.1,761.1 956.7,763.3 			"/>
			<polygon class="st7" points="956,776.2 948.5,774 948.8,768.6 956.3,770.8 			"/>
		</g>
	</g>
	<polygon class="st3" points="1119.2,808 982.5,760.5 999.6,743.9 1137.5,789.1 	"/>
	<polygon class="st16" points="1118.1,843.9 1103.7,881.5 959.7,832 959.3,830.1 980.7,796.8 1117.7,842 	"/>
	<polygon class="st12" points="1117.7,842 1103.3,879.5 959.3,830.1 980.3,794.8 	"/>
	<linearGradient id="SVGID_2_" gradientUnits="userSpaceOnUse" x1="959.3301" y1="839.1746" x2="1118.1097" y2="839.1746">
		<stop  offset="0" style="stop-color:#808080;stop-opacity:0.25"/>
		<stop  offset="0.54" style="stop-color:#808080;stop-opacity:0.12"/>
		<stop  offset="1" style="stop-color:#808080;stop-opacity:0.1"/>
	</linearGradient>
	<polygon class="st17" points="1118.1,843.9 1103.7,881.5 959.7,832 959.3,830.1 980.7,796.8 1117.7,842 	"/>
	<linearGradient id="SVGID_3_" gradientUnits="userSpaceOnUse" x1="959.3301" y1="837.1896" x2="1117.7236" y2="837.1896">
		<stop  offset="0" style="stop-color:#808080;stop-opacity:0.25"/>
		<stop  offset="0.54" style="stop-color:#808080;stop-opacity:0.12"/>
		<stop  offset="1" style="stop-color:#808080;stop-opacity:0.1"/>
	</linearGradient>
	<polygon class="st18" points="1117.7,842 1103.3,879.5 959.3,830.1 980.3,794.8 	"/>
	<polygon class="st3" points="1121.1,843.3 980,794.7 982.5,760.5 1119.2,808 	"/>
	<linearGradient id="SVGID_4_" gradientUnits="userSpaceOnUse" x1="979.9996" y1="801.9478" x2="1121.0533" y2="801.9478">
		<stop  offset="0" style="stop-color:#808080;stop-opacity:0.25"/>
		<stop  offset="0.54" style="stop-color:#808080;stop-opacity:0.12"/>
		<stop  offset="1" style="stop-color:#808080;stop-opacity:0.1"/>
	</linearGradient>
	<polygon class="st19" points="1121.1,843.3 980,794.7 982.5,760.5 1119.2,808 	"/>
	<g>
		<path class="st4" d="M1160.3,928.5l-1.5-1.9c-0.7-0.8-0.5-2.1,0.3-2.7l29.6-23.2c0.8-0.7,2.1-0.5,2.7,0.3l1.5,1.9
			c0.7,0.8,0.5,2.1-0.3,2.7l-29.6,23.2C1162.2,929.5,1161,929.3,1160.3,928.5z"/>
		<path class="st12" d="M1160.1,927.5l-1.5-1.9c-0.7-0.8-0.5-2.1,0.3-2.7l29.6-23.2c0.8-0.7,2.1-0.5,2.7,0.3l1.5,1.9
			c0.7,0.8,0.5,2.1-0.3,2.7l-29.6,23.2C1162,928.5,1160.8,928.4,1160.1,927.5z"/>
		
			<rect x="1157.3" y="841.2" transform="matrix(0.9812 -0.1931 0.1931 0.9812 -148.3306 240.4219)" class="st12" width="4" height="80"/>
		
			<rect x="1174.1" y="828.7" transform="matrix(0.9812 -0.1931 0.1931 0.9812 -145.5062 243.4228)" class="st12" width="4" height="79"/>
	</g>
	<g>
		<polygon class="st12" points="1171.4,795.8 1150.6,814.2 1148.3,854.4 1179.3,830.9 		"/>
		<polygon class="st12" points="1171.4,795.8 1150.8,814.7 1116.8,803.4 1137.5,784.5 		"/>
		<linearGradient id="SVGID_5_" gradientUnits="userSpaceOnUse" x1="1116.8417" y1="799.6219" x2="1171.3971" y2="799.6219">
			<stop  offset="0" style="stop-color:#808080;stop-opacity:0.25"/>
			<stop  offset="0.54" style="stop-color:#808080;stop-opacity:0.12"/>
			<stop  offset="1" style="stop-color:#808080;stop-opacity:0.1"/>
		</linearGradient>
		<polygon class="st20" points="1171.4,795.8 1150.8,814.7 1116.8,803.4 1137.5,784.5 		"/>
		<polygon class="st12" points="1150.8,814.7 1116.8,803.4 1115.6,843.5 1148.3,854.4 		"/>
		<polygon class="st14" points="1150.8,814.7 1116.8,803.4 1115.6,843.5 1148.3,854.4 		"/>
	</g>
	<polygon class="st21" points="1115,838.4 1113.6,831.6 983.6,786.8 984.9,793.7 	"/>
	<path class="st4" d="M1102,829c0,0-27.1,17.1-25.1,64.6c2.1,47.5-13.1,71.3-23.5,76.5l-107.2-36.9c0,0,26.2-14.9,25.1-62.6
		c-1.1-47.7,6.5-60.3,25.7-79.7L1102,829z"/>
	<path class="st15" d="M1098.9,829.4c0,0-25,18.2-22.9,64.6c2,46.5-12.8,69.8-23,74.8l-104.9-36.1c0,0,25.6-14.6,24.6-61.3
		c-1-46.7,4.7-59,23.4-78L1098.9,829.4z"/>
	<polygon class="st15" points="1146.6,827.3 1120.2,819.3 1121.1,812.4 1147.5,820.4 	"/>
	<polygon class="st10" points="1130,828.6 1119.7,825.5 1120.1,822.8 1130.4,825.9 	"/>
	<polygon class="st5" points="1145.7,833.1 1135.4,830 1135.7,827.3 1146,830.5 	"/>
	<polygon class="st7" points="1129.7,834.4 1119.4,831.3 1119.8,828.6 1130.1,831.7 	"/>
	<polygon class="st10" points="1145.4,839 1135.1,835.8 1135.5,833.2 1145.7,836.3 	"/>
	<polygon class="st5" points="1129.5,839.4 1119.2,836.3 1119.5,833.6 1129.8,836.7 	"/>
	<polygon class="st7" points="1145.2,843.9 1134.9,840.8 1135.2,838.1 1145.5,841.3 	"/>
</g>
<g>
	<g>
		<path class="st5" d="M1021.3,856.7c-3.1,0.1-7.9-2.2-12.2-3.2c-7.3-1.7-13.3-5.4-15.3-8.7c-2.6-4.2-2.6-7.6,1-12.8
			c2.1-3,6.4-5.4,11-4.6c0.8,0.1,1.6,0.4,2.4,0.7c-1.4,3.3,1.4,5.4,3.2,8.2c5.5,8.2,7.3,10.5,11.8,11.5c0,0,0,0,0,0c0,0,0,0,0,0
			c0,0,0,0,0,0c-0.2,0.3-0.4,0.7-0.5,1.1C1020.8,853.3,1018.5,854.9,1021.3,856.7z"/>
		<path class="st6" d="M1021.3,856.7c-2.8-1.8-0.5-3.4,1.5-7.7c0.2-0.4,0.4-0.7,0.5-1.1c0.4,1.5,0.7,3,0.8,4.4
			C1024.5,856.1,1023.1,856.6,1021.3,856.7z"/>
		<path class="st7" d="M1048.7,865.5c-5.2,2.4-7.4,0.2-13.9-2.8c-7.5-3.5-11.7-4.9-13.5-6.1c1.8-0.1,3.2-0.6,2.8-4.4
			c-0.1-1.4-0.4-2.9-0.8-4.4c0,0,0,0,0,0c0,0,0,0,0,0c0.3,0.1,0.5,0.1,0.8,0.2c6.7,1.2,12.1-0.9,12.9-5.2c0.1-0.8,0.2-1.6,0.2-2.6
			c2.9,0.3,5.9,1.2,9.1,2.6c6.9,3,10.3,6.3,11.2,8.8C1059.1,856.3,1054.1,863,1048.7,865.5z"/>
		<path class="st8" d="M1023.3,847.9c-4.6-1-6.3-3.3-11.8-11.5c-1.9-2.8-4.6-4.9-3.3-8.2c3.6,1.6,6.9,4.9,8.8,7.2
			C1020,838.8,1022.2,843.4,1023.3,847.9z"/>
		<path class="st9" d="M1037,842.9c-0.8,4.3-6.2,6.3-12.9,5.2c-0.3,0-0.6-0.1-0.8-0.2c3.2-6,8.1-8.1,13.9-7.5
			C1037.3,841.2,1037.2,842.1,1037,842.9z"/>
		<path class="st10" d="M1037.2,840.3c-5.8-0.5-10.7,1.5-13.9,7.5c0,0,0,0,0,0c-1.2-4.5-3.3-9.1-6.3-12.6c-1.9-2.2-5.2-5.6-8.8-7.2
			c0.3-0.8,0.9-1.6,1.7-2.5c5.2-5.5,15.6-3.6,21.6,3.3C1035.7,833.7,1037.2,837.4,1037.2,840.3z"/>
	</g>
</g>
<g>
	<g>
		<path class="st1" d="M1059.3,935.1c1.2-5.3-2.4-11.1-7.4-12.9s-9.7,1.2-10.9,6.5c-0.3,1.3-0.3,2.6-0.2,4c0,0,0,0,0,0
			c0.1,1.1,0.5,2.2,0.9,3.2c0,0,0,0,0,0c0,0.1,0.1,0.2,0.1,0.2c1.1,2.4,3.1,4.2,5.5,5.1c-2.6,6.7-4.2,9.8-9.5,15.5
			c0.4,0.1,0.6,0.2,1,0.3c3.3-3.8,4.6-5.9,6.6-10.1c0.7-0.1,1-0.1,1.7-0.2c0-0.2,0-0.3,0-0.5c-0.6,0.1-0.9,0.1-1.5,0.2
			c0.9-2,1.3-3,2.1-5.1C1052.7,943,1058.2,940.3,1059.3,935.1z"/>
		<path class="st1" d="M1033,920.9c1.1-6.3-3.1-13.2-9-15.3s-11.3,1.4-12.4,7.7c-0.3,1.5-0.3,3.1,0,4.7c0,0,0,0,0,0
			c0.2,1.3,0.6,2.6,1.2,3.8c0,0,0,0,0,0c0,0.1,0.1,0.2,0.1,0.3c1.4,2.8,3.8,5,6.6,6c-2.6,7.9-4.4,11.8-10.6,18.4
			c0.4,0.2,0.7,0.2,1.1,0.4c3.9-4.5,5.3-6.9,7.5-12c0.8-0.1,1.2-0.2,2-0.3c0-0.2,0-0.3-0.1-0.5c-0.7,0.1-1,0.1-1.7,0.2
			c1-2.4,1.4-3.6,2.1-6.1C1025.8,930.2,1031.9,927,1033,920.9z"/>
		<path class="st1" d="M1002.9,905.5c1.1-7.2-3.7-15-10.4-17.4s-13,1.6-14,8.8c-0.3,1.8-0.2,3.6,0.1,5.4c0,0,0,0,0-0.1
			c0.3,1.5,0.8,3,1.5,4.4c0,0,0,0,0,0c0.1,0.1,0.1,0.2,0.2,0.3c1.7,3.3,4.4,5.7,7.7,6.9c-2.6,9.2-4.4,13.6-11.4,21.2
			c0.5,0.2,0.8,0.3,1.3,0.5c4.4-5.1,5.9-7.9,8.2-13.8c0.9-0.1,1.3-0.2,2.2-0.3c0-0.3,0-0.4-0.1-0.6c-0.8,0.1-1.1,0.2-1.9,0.3
			c1-2.8,1.4-4.2,2.2-7.1C995.1,916.3,1001.9,912.6,1002.9,905.5z"/>
		<path class="st10" d="M1060.5,871c4.2,1.5,8,7.3,7.3,12.2s-5.5,7.1-10,5.5c-4.5-1.6-7-6.4-6-11.2
			C1052.8,872.8,1056.3,869.6,1060.5,871z"/>
		<path class="st7" d="M1006.3,876.6c8.8,3.1,13.9,12.9,12.6,22.4s-9.9,14.7-18.5,11.5c-9-3.3-14.7-13.3-13.5-22.8
			C988,878.4,997.5,873.5,1006.3,876.6z"/>
		<path class="st22" d="M993,877.9c-5.3,7.6-1.8,19.9,5,25.4c5.9,5.1,13.5,6,18.9,2.1c-4.7,7.5-14.9,8.1-22.4,1.6
			c-6.7-5.5-10-17.8-5.1-25.4C990.3,880,991.5,878.8,993,877.9z"/>
		<path class="st23" d="M1002.9,893.4C1002.9,893.4,1002.9,893.4,1002.9,893.4c-1.6,15.6-3.2,33.8-14.3,46c-0.7-0.2-1-0.4-1.7-0.6
			C997.9,926,1000.8,909.6,1002.9,893.4z"/>
		<path class="st23" d="M1001,919.8c0.1,0.3,0.1,0.5,0.2,0.8c-1.2,0.2-1.8,0.3-3.1,0.5c-0.1-0.3-0.1-0.5-0.1-0.8
			C999.2,920.1,999.8,920,1001,919.8z"/>
		<path class="st23" d="M1012.5,947.4c0,0,0.9-1,2-0.5"/>
		<path class="st5" d="M1013.9,945.2c0.3,0.1,0.4,0.4,0.2,0.7s-0.7,0.4-1,0.3c-0.3-0.1-0.4-0.4-0.2-0.7
			C1013.1,945.3,1013.6,945.1,1013.9,945.2z"/>
		<path class="st23" d="M1012.7,946.6c0.1,0,0.1,0,0.2,0.1c-0.3,0.4-0.5,0.6-0.9,1c-0.1,0-0.1,0-0.2-0.1
			C1012.1,947.2,1012.3,947,1012.7,946.6z"/>
		<path class="st23" d="M971.6,932.7c0,0,0.9-1,2-0.5"/>
		<path class="st5" d="M972.9,930.6c0.3,0.1,0.4,0.4,0.2,0.7c-0.2,0.3-0.7,0.4-1,0.3c-0.3-0.1-0.4-0.4-0.2-0.7
			C972.1,930.6,972.6,930.5,972.9,930.6z"/>
		<path class="st23" d="M971.7,932c0.1,0,0.1,0,0.2,0.1c-0.3,0.4-0.5,0.6-0.9,1c-0.1,0-0.1,0-0.2-0.1
			C971.2,932.6,971.4,932.4,971.7,932z"/>
		<path class="st23" d="M981.2,936.2c0,0,0.9-1,2-0.5"/>
		<path class="st5" d="M982.6,934.1c0.3,0.1,0.4,0.4,0.2,0.7c-0.2,0.3-0.7,0.4-1,0.3s-0.4-0.4-0.2-0.7
			C981.8,934.1,982.2,934,982.6,934.1z"/>
		<path class="st23" d="M981.3,935.4c0.1,0,0.1,0,0.2,0.1c-0.3,0.4-0.5,0.6-0.9,1c-0.1,0-0.1,0-0.2-0.1
			C980.8,936.1,981,935.9,981.3,935.4z"/>
		<path class="st23" d="M1023.5,889.8c0.6-0.2,0.8-0.3,1.4-0.6c-0.9-0.4-1.4,0-1.6,0.3c-0.7-0.6-1.5-0.4-1.5-0.4
			c0.9,0.7,1.3,1,2.2,1.7C1023.9,890.4,1023.7,890.1,1023.5,889.8z"/>
		<path class="st23" d="M1039.9,906.4c0.5-0.2,0.8-0.4,1.3-0.6c-0.9-0.4-1.4,0-1.6,0.3c-0.7-0.6-1.5-0.4-1.5-0.4
			c0.9,0.7,1.4,1.1,2.3,1.8C1040.3,907.1,1040.1,906.8,1039.9,906.4z"/>
		<path class="st23" d="M1019.2,908.4c0.5-0.2,0.8-0.4,1.3-0.6c-0.9-0.4-1.4,0-1.6,0.3c-0.7-0.6-1.5-0.4-1.5-0.4
			c0.9,0.7,1.3,1.1,2.2,1.8C1019.6,909.1,1019.4,908.7,1019.2,908.4z"/>
		<path class="st23" d="M1028.4,953.5c0,0,1-1,2-0.5"/>
		<path class="st23" d="M1017.3,949.6c0,0,1-1,2-0.5"/>
		<path class="st23" d="M976.7,935.2c0,0,1-1,2-0.5"/>
		<path class="st23" d="M1033.5,955.3c0,0,1-1,2-0.5"/>
		<path class="st23" d="M1031.1,954.4c0,0,1-1,2-0.5"/>
		<path class="st23" d="M1026.3,952.7c0,0,0.8-1.1-0.4-1.4"/>
		<path class="st23" d="M1007,945.9c0,0,0.9-1.1-0.4-1.4"/>
		<path class="st23" d="M991,940.3c0,0,0.8-1.1-0.4-1.4"/>
		<path class="st23" d="M974.1,934.3c0,0,0.8-1.1-0.4-1.4"/>
		<path class="st23" d="M1038.5,957c0,0,0.8-1.1-0.4-1.4"/>
		<path class="st23" d="M1031.2,954.6c0,0,0.9-1.1-0.4-1.4"/>
	</g>
</g>
</svg>
