<?xml version="1.0" encoding="utf-8"?>
<!-- Generator: Adobe Illustrator 22.1.0, SVG Export Plug-In . SVG Version: 6.00 Build 0)  -->
<svg version="1.1" id="Layer_1" xmlns="http://www.w3.org/2000/svg" xmlns:xlink="http://www.w3.org/1999/xlink" x="0px" y="0px"
	 viewBox="0 0 1920 337.5" style="enable-background:new 0 0 1920 337.5;" xml:space="preserve">
<style type="text/css">
	.st0{opacity:0.1;fill:#00AEB3;enable-background:new    ;}
</style>
<path class="st0" d="M1433,167.7c0-111.6,115.5-152.3,152.3-152.3c76.6,0,107.9,66.6,169,66.6c76.2,0,131.1,57.1,123.7,98.7
	c-9.5,53.6-70.9,47.7-204.5,47.7C1495.3,228.4,1433,210.4,1433,167.7z"/>
<path class="st0" d="M13,271.6c0-67.1,111.5-90.8,133.6-90.8c46.1,0,81.6,28.8,117.7,35.5c46.7,8.7,77.6,30.3,73.3,55.3
	c-8.4,49.9-80.8,49.9-161.1,49.9C69.4,321.5,13,297.3,13,271.6z"/>
</svg>
