<?xml version="1.0" encoding="utf-8"?>
<!-- Generator: Adobe Illustrator 22.1.0, SVG Export Plug-In . SVG Version: 6.00 Build 0)  -->
<svg version="1.1" id="Layer_1" xmlns="http://www.w3.org/2000/svg" xmlns:xlink="http://www.w3.org/1999/xlink" x="0px" y="0px"
	 viewBox="0 0 601.9 792.4" style="enable-background:new 0 0 601.9 792.4;" xml:space="preserve">
<style type="text/css">
	.st0{fill:#444053;}
	.st1{opacity:0.1;}
	.st2{fill:#EE4436;}
	.st3{fill:#4F4447;}
	.st4{fill:#00AEB3;}
	.st5{fill:#F47F20;}
	.st6{fill:#258746;}
	.st7{fill:#F3B01B;}
</style>
<g>
	
		<rect x="269" y="265.9" transform="matrix(7.996356e-02 -0.9968 0.9968 7.996356e-02 -57.8572 584.886)" class="st0" width="37.8" height="115.8"/>
	<g class="st1">
		<path d="M293.3,321.6c-24.7,12.3-75.6-3.3-115.3-1.9c-66.9,2.3-122.4-12.5-144.1-37.4C6.5,250.9,2.8,219.4,19.2,163.5
			c9.6-32.6,35.7-64.3,78.2-70.9c7.7-1.2,15.6-1.4,23.6-0.7c0.8,31.8,29.2,42.9,50.4,62.5c62.8,58.1,77.6,75.7,117.9,71.9
			c0,0.1,0,0.1,0.1,0.1l0,0l0,0c-1.1,3.7-2.1,7.5-3,11.4C275.4,283.2,261.4,308,293.3,321.6z"/>
		<path d="M293.3,321.6c-31.9-13.7-17.9-38.4-7-83.8c0.9-3.9,1.9-7.7,3-11.4c5.5,12.7,10.1,25.6,13.8,38.2
			C313.1,298.4,307.5,314.6,293.3,321.6z"/>
		<path d="M556.7,309.7c-30,35.8-58.1,29.1-123.8,27.3c-76.6-2.1-118.4-6.2-139.6-15.3c14.2-7.1,19.8-23.2,9.8-57
			c-3.7-12.5-8.3-25.4-13.8-38.2l0,0c0-0.1,0-0.1,0-0.2c2.3-0.2,4.7-0.5,7.1-0.9c58.5-8.4,101.8-43,102.5-84.6
			c0.1-7.8-2.5-17.4-4.1-25.6c24.9-5.8,51.2-9.3,80.2-5.7c62.8,7.8,103.1,31.4,114.6,51.6C611.3,198.8,588,272.5,556.7,309.7z"/>
		<path d="M289.2,226.3c-40.3,3.8-55.1-13.8-117.9-71.9c-21.2-19.6-49.7-30.7-50.4-62.5c36.7,2.9,74.5,22.6,95.5,37.2
			C248.8,151.6,273,188.3,289.2,226.3z"/>
		<path d="M399,140.8c-0.7,41.6-43.9,76.2-102.5,84.6c-2.5,0.4-4.9,0.6-7.1,0.9c18.9-65,57.9-98,107.7-109.6
			C398.7,125,399.1,133,399,140.8z"/>
		<path d="M400.6,120.9c-49.8,11.6-92.4,40.3-111.3,105.4h-0.1c-16.3-37.9-40.4-74.7-72.8-97.2c-21.1-14.7-58.8-34.4-95.5-37.2
			c-0.2-7.3,1.1-15.6,4.2-25.4C144.2,6.6,247.2-9.4,322.6,32.1C374.3,60.4,395.5,93.8,400.6,120.9z"/>
	</g>
	<g>
		<path class="st2" d="M293.5,314.7c-24.3,11.8-74.3-3.1-113.3-1.8c-65.8,2.2-120.3-11.9-141.7-35.7C11.6,247.1,7.9,217,24.1,163.6
			c9.5-31.2,35.1-61.5,76.8-67.8c7.6-1.1,15.3-1.3,23.2-0.7c0.8,30.4,28.7,41,49.6,59.8c61.7,55.6,76.3,72.4,115.8,68.8
			c0,0.1,0,0.1,0.1,0.1l0,0l0,0c-1.1,3.5-2.1,7.1-3,10.9C275.8,278,262.1,301.7,293.5,314.7z"/>
		<path class="st3" d="M293.5,314.7c-31.4-13.1-17.6-36.7-6.9-80.1c0.9-3.7,1.9-7.3,3-10.9c5.4,12.2,9.9,24.5,13.5,36.5
			C312.9,292.5,307.4,308,293.5,314.7z"/>
		<path class="st4" d="M552.4,303.3c-29.5,34.2-57.1,27.8-121.7,26.1c-75.3-2-116.3-6-137.2-14.7c13.9-6.8,19.4-22.2,9.6-54.5
			c-3.6-12-8.2-24.3-13.5-36.5l0,0c0-0.1,0-0.1,0-0.2c2.3-0.2,4.6-0.5,7-0.8c57.5-8,100-41.1,100.7-80.9c0.1-7.5-0.3-15.2-1.8-23.1
			c24.4-5.5,51.5-5.9,80.1-2.5c61.8,7.5,94.7,27,106,46.3C602.8,198.7,583.1,267.7,552.4,303.3z"/>
		<path class="st5" d="M289.5,223.6c-39.6,3.7-54.2-13.2-115.8-68.8c-20.8-18.8-48.8-29.3-49.6-59.7c36.1,2.7,73.2,21.6,93.9,35.6
			C249.8,152.2,273.5,187.3,289.5,223.6z"/>
		<path class="st6" d="M397.3,141.9c-0.7,39.8-43.2,72.8-100.7,80.9c-2.4,0.3-4.8,0.6-7,0.8c18.5-62.2,56.9-93.7,105.9-104.8
			C397,126.7,397.4,134.4,397.3,141.9z"/>
		<path class="st7" d="M395.5,118.8c-48.9,11.1-87.3,42.6-105.9,104.8h-0.1c-16-36.3-39.7-71.4-71.5-92.9
			c-20.7-14-57.8-32.9-93.9-35.6c-0.2-7,1.1-15,4.1-24.3c18.8-57.3,120-72.6,194.1-32.9C373.1,65,390.4,92.9,395.5,118.8z"/>
	</g>
</g>
</svg>
