<?xml version="1.0" encoding="utf-8"?>
<!-- Generator: Adobe Illustrator 22.1.0, SVG Export Plug-In . SVG Version: 6.00 Build 0)  -->
<svg version="1.1" id="Layer_1" xmlns="http://www.w3.org/2000/svg" xmlns:xlink="http://www.w3.org/1999/xlink" x="0px" y="0px"
	 viewBox="0 0 1920 470.5" style="enable-background:new 0 0 1920 470.5;" xml:space="preserve">
<style type="text/css">
	.st0{opacity:0.1;fill:#00AEB3;enable-background:new    ;}
</style>
<path class="st0" d="M263.3,309.9c4-65.7,54.1-75.7,75.8-75.7c45.2,0,68.7,24.2,104.3,29.3C475,268,555.3,282.6,546.8,333
	c-6,35.7-41.8,28.1-120.6,28.1C321.2,361.1,260.5,354.7,263.3,309.9z"/>
<path class="st0" d="M1421.8,234.1c2.9-65.7,51.4-77.8,73.1-77.8c45.2,0,65.6,24,101.2,29.1c31.6,4.5,88.2,22.7,87.4,47.5
	c-1.1,34.8-20.8,37.8-99.6,37.8C1478.9,270.8,1420.2,268.8,1421.8,234.1z"/>
</svg>
