<?xml version="1.0" encoding="utf-8"?>
<!-- Generator: Adobe Illustrator 22.1.0, SVG Export Plug-In . SVG Version: 6.00 Build 0)  -->
<svg version="1.1" id="Layer_1" xmlns="http://www.w3.org/2000/svg" xmlns:xlink="http://www.w3.org/1999/xlink" x="0px" y="0px"
	 viewBox="0 0 500 500" style="enable-background:new 0 0 500 500;" xml:space="preserve">
<style type="text/css">
	.st0{fill:#010101;}
</style>
<path class="st0" d="M45.2,417.7c0,23.5,18.4,45.6,42,45.6l304.7,10.9c23.5,0,85.7-64,85.7-87.6l-31-312c0-23.5-44-27.4-67.5-27.4
	L70.3,40.5c-23.5,0-42.6,19.1-42.6,42.6l12,299.9L45.2,417.7z M253.4,447.2V276.8h-42.6v-63.9h42.6c0-109.8,4.7-117.1,138.4-117.1
	v63.9c-70.5,0-63.9,3.9-63.9,53.2h63.9v63.9h-63.9v170.4L253.4,447.2L253.4,447.2z"/>
<g>
	<path d="M456.7,44.3C430.9,17.5,394.1,3.6,352.4,3.6H147.7C61.2,3.6,3.6,61.2,3.6,147.7v203.7c0,42.7,13.9,79.5,41.7,106.3
		c26.8,25.8,62.6,38.8,103.4,38.8h202.7c42.7,0,78.5-13.9,104.4-38.8c26.8-25.8,40.7-62.6,40.7-105.3V147.7
		C496.5,105.9,482.6,70.1,456.7,44.3z M452.8,352.4c0,30.8-10.9,55.7-28.8,72.5s-42.7,25.8-72.5,25.8H148.7
		c-29.8,0-54.7-8.9-72.5-25.8c-17.9-17.9-26.8-42.7-26.8-73.5V147.7c0-29.8,8.9-54.7,26.8-72.5c16.9-16.9,42.7-25.8,72.5-25.8h204.7
		c29.8,0,54.7,8.9,72.5,26.8c16.9,17.9,26.8,42.7,26.8,71.6V352.4L452.8,352.4z"/>
</g>
</svg>
