<?xml version="1.0" encoding="utf-8"?>
<!-- Generator: Adobe Illustrator 22.1.0, SVG Export Plug-In . SVG Version: 6.00 Build 0)  -->
<svg version="1.1" id="b1ff9bb2-7f4f-4418-907c-98d09956747d"
	 xmlns="http://www.w3.org/2000/svg" xmlns:xlink="http://www.w3.org/1999/xlink" x="0px" y="0px" viewBox="0 0 1060 664.1"
	 style="enable-background:new 0 0 1060 664.1;" xml:space="preserve">
<style type="text/css">
	.st0{fill:none;stroke:#444053;stroke-miterlimit:10;}
	.st1{fill:url(#SVGID_1_);}
	.st2{fill:#444053;}
	.st3{opacity:0.1;enable-background:new    ;}
	.st4{fill:#3F3D56;}
	.st5{fill:#A1616A;}
	.st6{fill:#F6B118;}
	.st7{opacity:5.000000e-02;enable-background:new    ;}
	.st8{fill:#D0D2D5;}
	.st9{fill:#02B1B5;}
	.st10{fill:#EE4436;}
	.st11{fill:url(#SVGID_2_);}
	.st12{fill:#FABDBD;}
	.st13{fill:#F5801F;}
	.st14{opacity:0.1;}
	.st15{opacity:0.1;fill:#6C63FF;enable-background:new    ;}
	.st16{opacity:0.1;fill:#00AEB3;enable-background:new    ;}
	.st17{fill:#FFFFFF;}
	.st18{fill:#EF4237;}
	.st19{fill:#E6E6E6;}
	.st20{fill:#00AEB3;}
	.st21{fill:#F47F20;}
	.st22{fill:#F3B01B;}
</style>
<title>circles</title>
<ellipse class="st0" cx="811.5" cy="568.1" rx="119.5" ry="24"/>
<linearGradient id="SVGID_1_" gradientUnits="userSpaceOnUse" x1="1197.6425" y1="17.3064" x2="1197.6425" y2="317.7584" gradientTransform="matrix(-1 0 0 -1 1606.1799 613.056)">
	<stop  offset="0" style="stop-color:#808080;stop-opacity:0.25"/>
	<stop  offset="0.54" style="stop-color:#808080;stop-opacity:0.12"/>
	<stop  offset="1" style="stop-color:#808080;stop-opacity:0.1"/>
</linearGradient>
<path class="st1" d="M360.5,376.9c0.4,0.9,0.7,1.8,1.2,2.6v0.1c0,0,5.7,20.9,8.3,25.3c0.8,1.3,1.6,2.7,2.5,4c-0.2,1-0.2,2,0,3
	c0.8,4.7,1.8,11.1,1.3,12.5s0.5,4.9-1,6.1s-3.1,3.3,1.6,6.2c0,0,0.9,2.4,0.1,2.9c-0.1,0.1,0,0.2,0.2,0.4c-1.3,3.8-3.2,10-2,10.4
	c0.6,0.2,2.4-0.7,4.3-1.9c0,0.2,0.1,0.5,0.1,0.8c0.3,2.1,0.8,4.1,1.4,6.1c0.9,1.9,1.7,5.1,1.3,6.2s1.3,3.4,0.9,4.3s1.3,4,1.3,4
	s1.7,5.9,1.6,7.8s1.9,14.8,1.9,14.8s-2,6.6-1,8.5s1.6,8.5,0,10.9c-1.6,2.4-3.7,7.8-3,9.3s-0.9,19.4,3.1,26.8
	c0.5,2.7,0.9,5.5,1.1,8.3c0,2,3.2,7.3,3.2,7.3s-1.9,8,2.8,9.3c0.3,0.1,0.7,0.2,1,0.2c0.1,0.9,0,1.8-0.3,2.6
	c-0.8,1.1-1.4,2.4-1.7,3.7l0,0c-0.1,0.3,0,0.5,0.1,0.8c0.5,0.6,2,8.5,2,8.5s2.1,8.9,13.8,6.7c0,0,7.9-0.5,7.2-3.2
	c-0.2-0.9-0.5-1.8-0.9-2.7c-0.3-0.6-0.5-1.1-0.7-1.7c-0.1-0.7-1.8-2.5-1.9-3.8s-1.2-3.7-1-4.5s-1.8-6.5-1.9-7.7
	c-0.2-0.9-0.4-1.7-0.8-2.6l0.4-0.2c0,0,1.1-5.9,0.1-8.1s-4.6-5-4.6-5s0.5-14.6-0.1-16.5s0.3-9.5,0.3-9.5s2.2-10.6,2.1-13
	c-0.1-1.5,0.1-3,0.7-4.3c0,0,1.4-15.6,2.3-17.6s2-21.3,2-21.3l0.6,1.8c0.9,2.7,1.9,5.3,3.1,7.8c0.5,0.8,2,3.4,3.3,5.5l1.9,3.2
	c0,0,0.9,3.1,0.3,5s6.2,12.2,6.2,12.2c-0.4,0.9-0.7,1.8-0.7,2.8c0.2,1-2.1,4.1-2.1,4.1s-0.9,2.8-0.3,3.8s-0.9,6.8-0.9,6.8
	s-2.3,12.9-2.8,14.4s0.3,11.9,0.3,11.9s-4.2,10.7-2.2,14.2c0.1,1.3,0.1,3.3-0.4,4.1c-0.7,1.1-0.5,5.1-0.4,6.2c0,0.2,0,0.3,0,0.3
	s-2.3,3,0.6,4.2s12.5,2.1,12.5,2.1s9.2,2.6,13.6,3.4s13.7,0.5,14.4-2.2c0.2-0.8,0.3-1.7,0.2-2.6c-0.1-1.1-0.8-2.1-1.8-2.6
	c-2.7-1.1-5.5-2-8.4-2.8c0,0-4.4-1-4.8-2.9s-6.6-7.2-6.6-7.2s-0.1-0.4-0.2-0.9h0.2l-0.3-0.3c-0.3-1-0.8-2.3-1.4-2.1l0,0
	c-0.4-0.7-0.1-1.6,0.6-2c0,0,0,0,0.1,0c2.4-1.3,3.9-5.5,3.2-9.9s-0.8-3.7,0.6-6.3c0.9-1.9,1.2-4.1,1-6.2l3.7-13.7
	c0.6-1.7,0.9-3.4,1.1-5.2c0.1-1.4,0.4-2.8,1.1-4c0,0,1.7-9.5,3.1-11.7s-1-9.8-1-9.8s-2.2-11.8-2.1-17.3s-5.8-24.2-5.8-24.2
	c-0.8-1.2-1.1-2.7-0.9-4.1c0.1-1.1-0.6-2.9-1.4-4.6l-0.2-0.5c0.3-0.4,0.7-0.7,1.1-1c1.6-1,2.4-3.6,2.4-5.5l-22.6-53.3
	c0-0.2,10.5-21.5,10.4-21.7c-0.6-3.5-6.5-12.8-6.5-12.8l0,0c-0.1-0.1-0.1-0.2-0.2-0.3c-1.3-0.6-5.8-3.2-5.8-3.2
	c-3.5-4.4-6.8-5.3-9-5.2c-0.7,0-1.4,0.1-2,0.3c-0.2,0.1-0.5,0.2-0.7,0.3l-0.1,0.9c-0.2-2,0-4,0.5-6c0-0.2,0.1-0.4,0.1-0.5
	c0.3,0,0.7,0,1,0c8.9,0,16.1-7.2,16.2-16.1l0,0c0-1.5-0.2-3-0.6-4.5l-0.1-0.2l0.5-0.2c2-0.7,4.5,0.5,6.1-0.8c0.6-0.6,1-1.3,1.2-2.1
	c0.4-1.1,0.7-2.2,0.9-3.4c0-0.2,0-0.4,0-0.6c0-0.1,0-0.1,0-0.2s0-0.1,0-0.2s0-0.2,0-0.3s0,0,0,0c-0.1-0.7-0.4-1.4-0.9-2
	c-1.1-1.2-2.8-1.5-4.2-2.5c-1.1-0.8-2-1.9-2.7-3.1s-1.5-2.3-2.6-3.2c-1.1-0.9-2.6-1.1-3.9-0.6c-0.4,0.3-0.8,0.5-1.3,0.6
	c-0.5,0-1-0.1-1.4-0.4c-4.6-2.1-10-1.8-15-1.1c-2,0.2-4,0.6-5.9,1.4s-3.4,2.4-4,4.3c-0.4,1.5-0.1,3.2-0.6,4.8c-0.3,1-1,1.9-1.4,2.9
	c-0.2,0.5-0.3,1.1-0.4,1.6l0,0c0,0,0,0.1,0,0.2c-0.2,2.3,0.7,4.7,1.1,7c0.6,3.2,0.3,6.7,1.7,9.7c0.1,0.4,0.3,0.7,0.5,1.1
	c-0.5,1-1,2.1-1.5,3c-0.7-0.2-3-0.7-3.1,1.3c0,1.6-0.4,3.2-1.1,4.6c-0.1,0.1-0.2,0.2-0.3,0.2c-0.3,0.1-0.4,0.4-0.4,0.6l0,0l-0.3,0.2
	c-0.1,0-0.2,0-0.3,0.1c-0.1-0.2-0.6-0.3-2.1,1.5c-1.9,2-4.2,3.7-6.6,5.1c0,0-9.8,6.9-10.4,10S358.9,372.3,360.5,376.9z M403.7,343.5
	v-0.1l0.1,0.1H403.7z M430.3,567.5c-0.3,0.1-0.6,0.2-0.8,0.2L430.3,567.5z"/>
<path class="st2" d="M407.7,595.3c-11.5,2.2-13.6-6.7-13.6-6.7s-1.4-7.9-2-8.5c-0.1-0.2-0.2-0.5-0.1-0.8l0,0
	c0.3-1.3,0.9-2.6,1.7-3.7c0.7-0.8,0.1-4.4,0.1-4.4l13.4-3.4c0.6,1.3,1,2.6,1.3,3.9c0.1,1.2,2.1,6.9,1.9,7.7s0.9,3.2,1,4.5
	s1.8,3.1,1.9,3.7c0.2,0.6,0.4,1.2,0.7,1.7c0.4,0.9,0.6,1.8,0.9,2.7C415.5,594.9,407.7,595.3,407.7,595.3z"/>
<path class="st3" d="M407.7,595.3c-11.5,2.2-13.6-6.7-13.6-6.7s-1.4-7.9-2-8.5c-0.1-0.2-0.2-0.5-0.1-0.8l2.8,8c0,0,2.3,4.8,10.8,4.1
	c4.9-0.4,7.2-1.3,8.4-2c0.4,0.9,0.6,1.8,0.9,2.7C415.5,594.9,407.7,595.3,407.7,595.3z"/>
<path class="st3" d="M398.8,582.9c0,0,2.9,0.1,3.1-2.3L398.8,582.9z"/>
<path class="st4" d="M448.9,505.4c-1.4,2.2-3.1,11.6-3.1,11.6c-0.6,1.2-1,2.6-1,4c-0.1,1.8-0.4,3.5-1,5.2l-3.8,13.6
	c0.2,2.1-0.1,4.2-1,6.2c-1.4,2.6-1.2,1.8-0.6,6.2s-0.8,8.6-3.1,9.9s1,4.4,1,4.4s-15.1,4.1-18.2,1.6s1.6-14.8,1.6-14.8
	s-0.8-10.3-0.3-11.9s2.8-14.3,2.8-14.3s1.4-5.8,0.9-6.8s0.3-3.8,0.3-3.8s2.2-3.2,2-4.1c0-1,0.2-1.9,0.7-2.7c0,0-6.7-10.2-6.1-12.1
	s-0.3-5-0.3-5s-0.8-1.5-1.9-3.2c-1.2-2.1-2.7-4.7-3.2-5.5c-1.2-2.5-2.2-5.1-3-7.8l-0.6-1.8c0,0-1,19.3-2,21.2s-2.3,17.5-2.3,17.5
	c-0.5,1.4-0.7,2.9-0.7,4.3c0.1,2.4-2.1,13-2.1,13s-1,7.5-0.3,9.4s0.1,16.4,0.1,16.4s3.6,2.8,4.5,5s-0.1,8.1-0.1,8.1
	s-10.5,5.2-15.1,3.9s-2.8-9.3-2.8-9.3s-3.1-5.2-3.1-7.3c-0.2-2.8-0.6-5.5-1.1-8.3c-4-7.3-2.4-25.2-3.1-26.6s1.4-6.8,3-9.2
	c1.6-2.4,1-9,0-10.9s1-8.5,1-8.5s-1.9-12.7-1.8-14.7s-1.6-7.8-1.6-7.8s-1.7-3-1.3-3.9s-1.3-3.3-0.9-4.3s-0.4-4.3-1.2-6.2
	c-0.6-2-1.1-4-1.4-6c-0.4-2.3-0.7-4.2-0.7-4.2l10.8-8.7l27-7.1l10.2-3.3l9.9,15.6c0,0,1,1.6,1.9,3.5c0.8,1.6,1.5,3.4,1.4,4.5
	c-0.2,1.4,0.2,2.9,0.9,4.1c0,0,5.9,18.7,5.8,24s2.1,17.2,2.1,17.2S450.3,503.3,448.9,505.4z"/>
<path class="st3" d="M388.2,515.2c0,0,11.5-4.9,14.9-1.4C406.5,517.2,388.2,515.2,388.2,515.2z"/>
<path class="st3" d="M394.7,517.2c0,0-11.7,6.6-7.7,7.7S394.7,517.2,394.7,517.2z"/>
<path class="st3" d="M429.5,511.5c0,0-5,0.3-3.1,1.3C428.4,513.8,429.5,511.5,429.5,511.5z"/>
<path class="st3" d="M435.8,513c-0.1,0.3-14.5,5-11.7,7.1S435.8,513,435.8,513z"/>
<path class="st3" d="M389.9,553.1c2.2-0.3,14.2-5.9,9.5-1.9C396.8,553.5,393.2,554.2,389.9,553.1z"/>
<path class="st3" d="M395.9,557.5c0,0,1,4.1,5,3.5S395.9,557.5,395.9,557.5z"/>
<path class="st3" d="M392.5,565.7c0.7-0.2,9.3-4.1,9.5-2.3s-8.2,5-8.8,4.1C392.8,567,392.6,566.4,392.5,565.7z"/>
<path class="st3" d="M420.3,561c1-0.1,10.9-3.2,12.8-0.4L420.3,561z"/>
<path class="st3" d="M429.2,562.8c0,0,1.7-1.5,3.4-0.7S429.2,562.8,429.2,562.8z"/>
<path class="st3" d="M407.5,579.1c0.2,1.1,1.1,2,2.2,2.3L407.5,579.1z"/>
<path class="st2" d="M457.5,585.2c-0.7,2.7-9.8,3-14.2,2.2s-13.5-3.3-13.5-3.3s-9.6-0.9-12.4-2.1s-0.6-4.2-0.6-4.2s0-0.1,0-0.3
	c-0.1-1.1-0.3-5.1,0.4-6.1c0.8-1.2,0.3-5.3,0.3-5.3s13.6,2.6,13.8,1.4s2.4-3,3.3-3.4s1.7,3.3,1.7,3.3s6.2,5.2,6.6,7.1
	s4.7,2.9,4.7,2.9c2.8,0.8,5.6,1.7,8.3,2.8c1,0.5,1.7,1.4,1.8,2.5C457.8,583.5,457.7,584.4,457.5,585.2z"/>
<path class="st3" d="M457.5,585.2c-0.7,2.7-9.8,3-14.2,2.2s-13.5-3.3-13.5-3.3s-9.6-0.9-12.4-2.1s-0.6-4.2-0.6-4.2s0-0.1,0-0.3
	l13.7,3c0,0,6.8,2.9,11.1,2.9c3.8,0,12.2,1.5,16.2-0.8C457.8,583.5,457.7,584.4,457.5,585.2z"/>
<path class="st3" d="M438.9,574.9c0,0-0.6,4.3-3.3,5.8L438.9,574.9z"/>
<path class="st5" d="M480.9,415.6c-3.9,1.5-12.9,1.6-16.9,1.6c-1.2,0-2,0-2,0l-2.6-5.2l2.6-4.4c0,0,2.4-0.7,5.5-1.2
	c4.6-0.8,11-1.5,14,0.4C486.5,410,486,413.8,480.9,415.6z"/>
<path class="st6" d="M421.3,352.9l1.1-1.3c0,0,5.9,9.3,6.5,12.8s1.4,7.5,1.4,7.5s1.5,4.5,2.5,6.5c0.8,1.5,1.5,3.1,1.9,4.8
	c0.1,0.9-0.4,2.8,1.5,4s2.3,4.5,2.3,4.5s6.6,6.5,10.1,6.6s13.5,1.9,13.2,3.7s4.2,2.8,6,3.2S456,411,464,417.8c0,0-5.1,1-5.6,2.3
	s-5.8-0.7-5.8-0.7s-1.1-2.7-5.1-2.9s-5.9-1.9-5.9-2.2s-3.9-2.5-6.1-3.1s-5.1-0.9-5.2-1.5S417.2,353,417.2,353L421.3,352.9z"/>
<path class="st7" d="M421.3,353.2l1.1-1.3c0,0,5.9,9.3,6.5,12.8s1.4,7.5,1.4,7.5s1.5,4.5,2.5,6.5c0.8,1.5,1.5,3.1,1.9,4.8
	c0.1,0.9-0.4,2.8,1.5,4s2.3,4.5,2.3,4.5s6.6,6.5,10.1,6.6s13.5,1.9,13.2,3.7s4.2,2.8,6,3.2S456,411.2,464,418c0,0-5.1,1-5.6,2.3
	s-5.8-0.7-5.8-0.7s-1.1-2.7-5.1-2.9s-5.9-1.9-5.9-2.2s-3.9-2.4-6.1-3s-5.1-0.9-5.2-1.5s-13.1-56.8-13.1-56.8L421.3,353.2z"/>
<path class="st0" d="M555,590.6c66,0,119.5,10.8,119.5,24s-53.5,24-119.5,24s-119.5-10.7-119.5-24"/>
<rect x="447.9" y="148.6" transform="matrix(0.1673 -0.9859 0.9859 0.1673 270.9128 635.077)" class="st4" width="127.1" height="17.1"/>
<polygon class="st8" points="550.3,598.8 554.1,625.5 557.3,597.7 "/>
<polygon class="st4" points="430.2,583.8 430.2,600.4 433.9,614.8 436.6,614.8 439.8,599.3 441.4,580.6 "/>
<path class="st8" d="M422.6,519.2l8,1.6c0,0-9.1,25.1-2.7,30.4h-10.1C417.8,551.2,414,532,422.6,519.2z"/>
<path class="st3" d="M422.6,519.2l8,1.6c0,0-9.1,25.1-2.7,30.4h-10.1C417.8,551.2,414,532,422.6,519.2z"/>
<path class="st9" d="M476.1,217.5l-25.6,162.3c0,0-37.9,173-23.5,207.2h18.2l54.5-332.1L476.1,217.5z"/>
<path class="st9" d="M541.1,197.4L554.3,363c0,0,20.8,205.4,5.1,239h-15.5l-27.7-368.1L541.1,197.4z"/>
<path class="st4" d="M473.7,158.2c2.7-9.1,11.2-15.3,20.7-15c15.8,0.4,40.2,3.3,53,16.3c19.8,20.3-13.3,88.6-13.3,88.6
	s-31,57.1-59.3-15.5C474.8,232.8,463.1,193.9,473.7,158.2z"/>
<path class="st3" d="M473.7,158.6c2.7-9.1,11.2-15.3,20.7-15c15.8,0.4,40.2,3.3,53,16.3c19.8,20.3-13.3,88.6-13.3,88.6
	s-31,57.1-59.3-15.5C474.8,233.2,463.1,194.3,473.7,158.6z"/>
<path class="st10" d="M484.6,172.1c2-6.5,8-10.8,14.8-10.7c11.2,0.3,28.7,2.3,37.7,11.6c14.1,14.4-9.5,63.1-9.5,63.1
	s-22,40.7-42.2-11C485.3,225.2,477,197.5,484.6,172.1z"/>
<linearGradient id="SVGID_2_" gradientUnits="userSpaceOnUse" x1="1181.5436" y1="77.8338" x2="1269.0409" y2="77.8338" gradientTransform="matrix(-1 0 0 -1 1808.27 613.056)">
	<stop  offset="0" style="stop-color:#808080;stop-opacity:0.25"/>
	<stop  offset="0.54" style="stop-color:#808080;stop-opacity:0.12"/>
	<stop  offset="1" style="stop-color:#808080;stop-opacity:0.1"/>
</linearGradient>
<path class="st11" d="M539.3,587.9c0.2,2.6,0.6,5.3,2.2,7.3c2.7,3.3,7.6,3.6,11.8,4.7c3.2,0.9,6.4,2.2,9.3,3.7l9.1,4.3
	c-2.3,0.1-4.6,0.6-6.8,1.4c-1.2,0.4-2.5,1.1-2.6,2.4c0,1,0.6,2,1.5,2.4c1,0.4,2,0.6,3,0.5c5.4,0.2,10.8-0.1,16.2-0.8l0.6-0.1
	c2.8,1.4,5.5,2.8,8.2,4.2c1.1,0.6,2.5,0,3.5-0.8c1.2-1,2.2-2.2,3.1-3.5c0.2,0.3,0.3,0.5,0.5,0.8c0.9,1.7,1.7,3.9,0.5,5.3
	c-1,1.1-2.9,1.3-3.5,2.7c-0.3,1,0.1,2.1,0.9,2.7c0.9,0.6,1.9,0.9,2.9,1c2.5,0.3,5,0.3,7.5-0.1c1.3-0.1,2.6-0.6,3.6-1.5
	c0.9-1.2,1.3-2.6,1.3-4l1.7-19.4c0.2-0.9,0.1-1.9-0.2-2.8c-0.7-1.7-2.7-2.3-4.4-2.6H609c1.5,0,3-0.1,4.6-0.1
	c1.4,0.1,2.8-0.1,4.1-0.5c2.5-1,3.9-3.7,5-6.1c2-4.3,4.3-9,4-13.8l-0.8-0.3c-0.1-5.1-2.2-9.9-3-14.9c0.9-1.3,1.3-2.9,1.3-4.5
	c-0.1-1.8-0.5-3.5-1.1-5.1c-3.2-9.4-6.3-18.9-10.6-27.9c-2.7-6-6.1-11.7-10-17c-1-1.3-2.1-2.7-3.2-4c-0.8-0.9-2.6-2.2-2.9-3.4
	s0.4-2.3,0-3.5c-0.1-0.3-0.2-0.6-0.4-0.9c2.3-3.1,1.7-7.6,0.9-11.4l-1-4.8c-0.2-1.3-0.6-2.6-1.2-3.8c-0.6-1-1.5-1.9-2.4-2.7
	c-4.9-4.4-11-7.4-16.5-11.1c-5.8-3.9-11.1-8.6-16.3-13.3c-1.6-1.4-3.6-3-5.7-2.3s-2.9,2.8-3,4.9c0,2.9,1.1,5.6,3.2,7.5
	c3.6,3.3,9.1,3.6,13.4,5.9c1.5,0.9,2.9,1.8,4.2,2.9l12.5,9.8c0.9,0.6,1.6,1.5,2,2.5c0,0.6-0.1,1.3-0.3,1.9c-0.5,1.4-1.3,3.2-1.9,5.1
	l-1-0.7c-2.1-1.5-4.3-2.9-6.6-4c-3.1-1.3-6.4-2.1-9.7-2.3c-7.4-0.8-14,0.3-18.5,6.5c-0.9,1.4-2.1,2.6-3.5,3.6c-1,0.5-2,1.1-2.8,1.8
	c-2.3,2.6-1,6.8,1.2,9c1.8,1.7,4.1,2.9,6.6,3.4c2.8,6.3,9.9,9.4,16.4,7.4c0.2,1.3,0.2,2.6,0.1,3.9c-0.1,1.3,0.4,2.7,1.4,3.6
	c0.5,0.4,1.1,0.6,1.7,0.8c2.2,0.8,4.3,1.9,6.2,3.2c-2.3,2.4-4.1,5.2-5.5,8.2c-1.7,4.1-1.4,8.7,1,12.5l0.1,0.1
	c-0.2,0.6-0.5,1.2-0.9,1.7c-1.3,1-3.1,0.8-4.1-0.4c-0.9-1-1.6-2.1-2.2-3.3c-2-3.3-5.3-5.6-9-6.4c-1.4-0.4-2.8-0.3-4.2,0.2
	c-1.3,0.5-2.3,1.7-2.4,3.1c0,1.5,1.1,2.8,2.2,3.8c3.3,3.4,7,6.5,11,9.1c1.1,0.7,2.2,1.3,3.4,1.8c-2-0.4-4-0.8-5.9-1.2
	c-2.7-0.7-5.5-0.9-8.3-0.7s-5.4,1.7-7,4.1c-1.1,2.1-1.3,4.5-0.7,6.8c0.7,2.2,1.7,4.4,3.1,6.3c2.1,3.5,4.7,6.8,7.7,9.6
	c-2.5,0.8-5,1.6-7.4,2.5s-5,2-6.1,4.2C539.3,584.4,539.1,586.2,539.3,587.9z M576.1,553.9L576.1,553.9c0.6-0.2,1.1-0.6,1.4-1.1
	c1.5-2,2.6-4.4,3.2-6.8c0.6-0.1,1.2-0.2,1.7-0.4c-0.8,0.7-1.2,1.7-1.2,2.8l5.6,2.8c0.4,0.2,0.8,0.4,1,0.8c0.2,0.4,0.2,0.8,0.1,1.2
	c-0.2,1.3-0.4,2.6-0.6,3.9c-1.7-0.5-3.3-0.9-4.8-1.3C580.4,555,578.3,554.4,576.1,553.9L576.1,553.9z"/>
<path class="st12" d="M577.2,500.8c2.9,0.7,5.9,0.2,8.4-1.3c0.5-0.3,1-0.6,1.6-0.8c1.1-0.1,2.1,0.3,2.8,1.1c2.4,2.4,2.7,6.3,1.4,9.5
	c-1.2,3.1-3.7,5.6-6.3,7.8c-2.1,1.7-4.3,3.3-6.7,4.7c-1.3-3-3.8-5.4-6.8-6.7c-2.7-1.1-4.7-3.9-6.3-6.4c-1.2-1.8-2.2-1.8-1.2-3.7
	c1.2-1.8,2.6-3.5,4.2-5c0.9-0.9,1.6-1.9,2.2-3c0.7-1.3,0.5-2.1,1.6-1.1c0.7,0.7,1,2.1,1.8,2.9C574.9,499.8,576,500.4,577.2,500.8z"
	/>
<path class="st12" d="M585.8,481.3c0.2-0.6,0.3-1.2,0.3-1.8c-0.3-1-1-1.9-1.9-2.5l-12.2-9.7c-1.3-1.1-2.7-2-4.1-2.9
	c-4.2-2.3-9.5-2.6-13.1-5.8c-2.1-1.9-3.2-4.6-3.2-7.5c0-2,1-4.3,2.9-4.8s4,0.9,5.6,2.3c5.1,4.6,10.2,9.3,15.9,13.1
	c5.4,3.6,11.3,6.5,16.2,10.9c0.9,0.7,1.6,1.6,2.2,2.6c0.6,1.2,1,2.5,1.2,3.8l1,4.7c0.8,4,1.5,8.7-1.2,11.7c-0.8,1-2,1.6-3.3,1.6
	c-0.9-0.1-1.7-0.4-2.5-0.9c-2-1-5.6-2-6.2-4.5C582.6,488.6,584.8,484.2,585.8,481.3z"/>
<path class="st12" d="M566.3,543.8c-0.8-1-1.5-2.1-2.1-3.3c-1.9-3.2-5.1-5.5-8.8-6.3c-1.3-0.3-2.7-0.3-4,0.2s-2.2,1.7-2.3,3.1
	c0,1.5,1.1,2.7,2.1,3.8c3.2,3.4,6.8,6.4,10.8,9c3.9,2.6,8.4,4.1,13.1,4.5c0.5,0.1,0.9,0,1.4-0.1c0.5-0.2,1-0.6,1.3-1.1
	c2.5-3.2,3.3-7.3,4-11.3c-0.2,1.4-8.3-1.9-9.2-1.5c-1.3,0.6-1.2,2.5-2.2,3.4C569.1,545.2,567.3,545,566.3,543.8z"/>
<path class="st12" d="M624.9,575.2c0,0.5-0.1,1-0.3,1.5c-0.5,0.9-1.8,0.9-2.8,0.7c-2.3-0.4-4.6-0.9-6.9-1.7l-20.5-5.9
	c-0.3-0.1-0.6-0.2-0.9-0.4c-0.2-0.3-0.4-0.6-0.4-0.9c-0.7-2.9-0.9-6-0.5-9c0-0.4,0.2-0.9,0.4-1.2c0.5-0.4,1.1-0.7,1.7-0.6
	c3.2-0.3,6.4-0.5,9.7-0.4c2.1,0.1,4.2,0,6.3-0.1c2.7-0.3,5.8-1.9,8.5-1.6c2.3,0.2,2.2,2,2.5,4C622.4,564.7,624.9,569.8,624.9,575.2z
	"/>
<path class="st4" d="M559.4,550.8c-2.7-0.7-5.4-0.9-8.2-0.7s-5.3,1.7-6.8,4c-1.1,2.1-1.3,4.5-0.6,6.7s1.7,4.3,3,6.2
	c2.3,4,5.3,7.6,8.8,10.6c1.8,1.4,3.7,2.5,5.4,4c3.6,3.1,5.8,7.5,7.9,11.8c2,4,4,8.1,4.9,12.5c0,0.3,0.2,0.7,0.4,0.9
	c0.3,0.1,0.6,0.2,0.9,0.1l9.8-1.8c0.8,0,1.6-0.6,1.6-1.5c0-0.3-0.1-0.6-0.2-0.9c-2.1-9.2-6.1-17.8-11.8-25.4
	c5.3,5,12.7,7.1,19.8,5.7c1.4-0.2,2.7-0.8,3.8-1.6c2.2-2,2.1-5.4,1.6-8.3c-0.4-2.6-1-5.2-1.8-7.7c-1.8-6-9.8-7.6-15.2-9.1
	C574.9,554.2,567.2,552.4,559.4,550.8z"/>
<path class="st3" d="M566.7,572.1c1.4,0.6,2.7,1.4,3.7,2.5c-1.8-2-6.8-3-9.3-3.9c-3.1-1.1-6.4-2.3-9-4.3
	C557.1,567.9,562,569.8,566.7,572.1z"/>
<path class="st6" d="M598.6,614.2c0.8,1.7,1.7,3.8,0.4,5.3c-0.9,1.1-2.8,1.3-3.4,2.6c-0.3,1,0.1,2.1,0.9,2.7c0.8,0.6,1.8,0.9,2.8,1
	c2.4,0.3,4.9,0.3,7.3-0.1c1.3-0.1,2.5-0.6,3.5-1.5c0.8-1.2,1.3-2.6,1.2-4L613,601c0.1-0.9,0.1-1.8-0.2-2.7c-0.7-1.6-2.6-2.3-4.3-2.6
	c-1.9-0.3-3.9-0.4-5.9-0.2c-1.3,0-2.6,0.5-3.7,1.3c-1,1.1-1.6,2.5-1.7,4c-0.5,2.3-1.7,5.4-1.4,7.8
	C596,610.4,597.7,612.6,598.6,614.2z"/>
<path class="st6" d="M576.5,608c-3.7-0.5-7.6-0.1-11.1,1.2c-1.1,0.4-2.4,1.1-2.6,2.3c0,1,0.5,2,1.5,2.4c0.9,0.4,1.9,0.6,2.9,0.5
	c5.3,0.1,10.6-0.1,15.8-0.8c1.4-0.1,2.7-0.5,3.8-1.2c1.2-0.8,1.7-2.2,1.2-3.6c-0.6-1.3-2.3-1.7-3.2-2.9c-0.6-0.9-0.8-2.1-1.7-2.6
	c-0.7-0.2-1.5-0.2-2.2,0.2c-1,0.3-3.4,0.7-4.1,1.5C576.7,606.1,576.5,607,576.5,608z"/>
<circle class="st12" cx="562.3" cy="498.1" r="13.1"/>
<path class="st13" d="M593.5,492.4c-2.1-1.5-4.8-2.1-7.3-2.6c-0.9-0.3-1.8-0.2-2.6,0.1c-0.6,0.4-1,0.9-1.3,1.6
	c-0.8,1.3-1.4,2.7-1.7,4.2c-0.4,1.5,0,3.1,1,4.2c0.8,0.8,1.9,1.2,2.7,2c1.1,1.2,1.5,2.8,1.2,4.3s-0.9,3-1.8,4.3
	c-1.9,3.4-4.1,6.6-6.6,9.7c-2.5,3.2-5.4,6.2-6.9,10c-1.7,4-1.3,8.6,1,12.3c2.4,3.5,7.3,5.4,11.3,3.9c-0.7,0.7-1.2,1.7-1.1,2.7
	l5.5,2.7c0.4,0.1,0.8,0.4,1,0.8c0.1,0.4,0.2,0.8,0.1,1.2c-0.4,2.2-0.7,4.5-0.7,6.7c0.2,2.2,1.2,4.6,3.2,5.6c1.9,0.9,4.1,0.4,6.1,0
	c4.8-1,9.6-1.5,14.5-1.5c2.4,0,4.9,0.1,7.2-0.9c3.1-1.3,5-4.4,5.1-7.7c-0.1-1.7-0.5-3.4-1.1-5.1c-3.1-9.3-6.2-18.6-10.3-27.5
	c-2.7-5.9-6-11.5-9.8-16.8c-1-1.3-2-2.6-3.1-3.9c-0.8-0.9-2.5-2.2-2.8-3.3s0.4-2.3,0-3.5C595.6,494.5,594.7,493.2,593.5,492.4z"/>
<path class="st4" d="M625.7,575.5c-5.8-2.7-11.5-5.3-17.5-7.4c-4.4-1.5-9.3-2.7-13.7-1c-1.3,0.5-2.5,1.3-3.7,1.9
	c-4.2,2-9,2.3-13.6,2.8c-10.3,1.2-20.4,3.6-30.2,7.2c-2.3,0.9-4.8,2-6,4.2c-0.7,1.6-0.9,3.3-0.6,5c0.2,2.5,0.6,5.2,2.2,7.2
	c2.6,3.3,7.4,3.5,11.5,4.6c3.2,0.9,6.2,2.1,9.1,3.6c9.6,4.6,19.2,9.1,28.6,14.1c1.1,0.6,2.4,0,3.4-0.8c2.8-2.6,4.9-6,5.9-9.7
	s1.5-7.5,1.5-11.4c3.7,0,6.7-0.2,10.3-0.2c1.4,0.1,2.7-0.1,4-0.5c2.5-1,3.8-3.6,4.9-6C623.8,584.8,626,580.1,625.7,575.5z"/>
<path class="st3" d="M558.8,589.1c2.6-1.3,5.6-1.3,8.5-1.3c1.8,0,3.5,0.1,5.3,0.4c2.7,0.7,5.2,1.7,7.7,2.9
	c6.1,2.6,12.7,3.9,19.4,3.8"/>
<path class="st4" d="M543.9,500c2,1.8,4.4,3.1,7.1,3.5c2.6,0.6,5.3,0.8,7.9,1.4c3.2,0.7,6.7,2.4,7.5,5.6c0.2,1.3,0.2,2.6,0.1,3.9
	c-0.1,1.3,0.4,2.6,1.3,3.5c0.5,0.3,1.1,0.6,1.7,0.8c10.7,4.1,17.9,14.3,18,25.8c3.3-1.9,5.6-5.3,6.2-9.1c0,3.5,3,7,1.3,10.1
	c7.4-4.8,9.5-14.7,4.6-22.1c-0.2-0.4-0.5-0.7-0.8-1.1c-1.3-1.7-3-3.1-4.4-4.7c-4-4.6-5.8-10.6-5.2-16.6c0.3-2.5,1-5.1,0.5-7.6
	c-0.8-3.5-3.8-5.8-6.7-7.9c-2-1.5-4.2-2.8-6.5-3.9c-3-1.3-6.2-2-9.5-2.3c-7.2-0.8-13.6,0.3-18.1,6.4c-0.9,1.4-2.1,2.6-3.4,3.6
	c-1,0.5-1.9,1.1-2.8,1.8C540.4,493.6,541.7,497.8,543.9,500z"/>
<path class="st5" d="M409,353.6c-0.4-0.2-28.9-11.9-25-14.3c2.3-1.4,5.2-7.3,7.2-11.9c1.4-3.2,2.3-5.8,2.3-5.8s22.9-4.1,14.7,10
	c-1.3,2.2-2.3,4.5-2.9,6.9C402.9,348,408.8,353.4,409,353.6z"/>
<path class="st3" d="M408.1,331.6c-1.3,2.2-2.3,4.5-2.9,6.9c-5.9-0.4-11.1-4.1-13.5-9.5c-0.2-0.5-0.4-1-0.6-1.6
	c1.4-3.2,2.3-5.8,2.3-5.8S416.3,317.6,408.1,331.6z"/>
<path class="st5" d="M422.3,322c0,8.8-7.2,16-16.1,15.9c-6.3,0-12-3.7-14.5-9.5c-0.9-2-1.4-4.2-1.4-6.5c0-8.8,7.2-16,16.1-15.9
	c7.1,0,13.3,4.7,15.3,11.5C422.1,319,422.3,320.5,422.3,322z"/>
<path class="st3" d="M437.8,445.9c-1.1,1.2-1.9,2.8-2.3,4.4c0,0-7.9,5.4-7.3,2s-4.1-17.2-4.1-17.2l0.5,18.7c0,0-25.1-1.2-27-3
	s-12.5-5.4-12.5-5.4s-3.3,2.6-6.3,4.6c-0.4-2.3-0.7-4.2-0.7-4.2l10.8-8.7l27-7.1l10.1-3.3l9.9,15.6
	C435.8,442.4,436.9,444,437.8,445.9z"/>
<path class="st2" d="M438.6,444.4c-2.1,1.3-2.9,4.8-2.9,4.8s-7.9,5.4-7.3,2s-4.1-17.2-4.1-17.2l0.5,18.7c0,0-25.2-1.2-27-3
	s-12.6-5.4-12.6-5.4s-9.3,7.5-11,6.8s3-13.4,3-13.4l4.8-74.4c0,0-1.3-22.1,0.7-22.9c0.3-0.1,0.6-0.3,0.8-0.5
	c1.3-1.2,1.7-3.5,1.8-5.5c0.1-2.4,3.3-1.2,3.3-1.2l-1.8,2.4l16.2,9.9l0.1,0.1c0.6-0.3,1.3-0.6,2-0.9c1.4-0.5,3.4-1.1,4.6-0.5
	c0.7,0.4,1.3,0.9,1.7,1.5c0.9,1.4,1.7,2.9,2.2,4.5l5.9,10c0,0,3,13.2,3,13.8s0.9,12.6,2,13.9s2.1,7.9,1.7,9.8s0.6,9.3,0.6,9.3
	c4.3,3.5,6.5,15.6,6.5,15.6s6.8,13.5,7.3,15.1S440.7,443.1,438.6,444.4z"/>
<path class="st3" d="M403.1,346c-1.6,2.4-6.2,5.7-6.2,5.7l-13.3-11.2c1.3-1.2,1.7-3.5,1.8-5.5c0.1-2.4,3.3-1.2,3.3-1.2l-0.4,0.5
	c-0.7,0.9-0.5,2.3,0.4,3c0.1,0,0.1,0.1,0.2,0.1L403.1,346z"/>
<path class="st2" d="M403.1,345.5c-1.6,2.4-6.2,5.7-6.2,5.7L383.6,340c1.3-1.2,1.7-3.5,1.8-5.5c0.1-2.4,3.3-1.2,3.3-1.2l-0.4,0.5
	c-0.7,0.9-0.5,2.3,0.4,3c0.1,0,0.1,0.1,0.2,0.1L403.1,345.5z"/>
<path class="st3" d="M409.2,347.3c-1.7,2-4.1,4.4-4,3.2s-1.5-3.7-2.4-4.9c1.6-0.5,3.2-0.4,4.8,0.1
	C408.2,346.1,408.8,346.6,409.2,347.3z"/>
<path class="st2" d="M409.5,346.5c-1.7,2.1-4.1,4.4-4,3.2s-1.3-3.1-2.3-4.2c1.4-0.5,3.4-1.1,4.6-0.5
	C408.5,345.3,409.1,345.8,409.5,346.5z"/>
<path class="st3" d="M383.6,340.6c0,0,0.2-1.6-2.1,1.1c-1.9,2-4.1,3.7-6.5,5c0,0-9.7,6.8-10.2,10s-3.7,16.8-2,21.3
	s14.3,26.3,14.3,26.3s-3.3,3.9-2.5,8.6s1.8,11,1.3,12.4s0.5,4.9-1,6.1s-3,3.3,1.6,6.1c0,0,0.9,2.4,0.1,2.9s11.6,5.9,16.5,3.1
	s13.7-25.9,13.9-31.1s-2.7-22.2-4.3-26.2s-6.3-19.7-8.3-23.1S383.6,340.6,383.6,340.6z"/>
<path class="st6" d="M383.1,340.6c0,0,0.2-1.6-2.1,1.1c-1.9,2-4.1,3.7-6.5,5.1c0,0-9.7,6.8-10.2,10s-3.7,16.8-2,21.3
	s14.3,26.3,14.3,26.3s-3.3,3.9-2.5,8.6s1.8,11,1.3,12.4s0.5,4.9-1,6.1s-3.1,3.3,1.6,6.1c0,0,0.9,2.4,0.1,2.9s11.6,5.9,16.5,3.1
	s13.7-25.9,13.9-31.1s-2.7-22.2-4.3-26.2s-6.3-19.7-8.3-23.1S383.1,340.6,383.1,340.6z"/>
<path class="st3" d="M379.6,355.5c0,0,7.5,8.3,7.2,13.8C386.8,369.3,386.9,360.4,379.6,355.5z"/>
<path class="st3" d="M404.9,343.6c0,0,4.9-3,11,4.6c0,0,4.5,2.5,5.8,3.1s2.8,16.9,2.8,16.9s2.9,7,2.1,11s2.3,17.8,2.3,17.8
	s5.1,24.8,4.9,25.5s-5.2-7.8-5.1-12s-4.2-17.3-4.8-18.1s-4.8-23.2-4.8-23.2s-3.4-9.5-5.6-12.7s-4.9-9.1-6-10.1
	c-0.8-0.7-1.7-1.3-2.7-1.7L404.9,343.6z"/>
<path class="st6" d="M404.9,343.6c0,0,5.5-3,11.6,4.6c0,0,4.5,2.5,5.8,3.1s2.8,16.9,2.8,16.9s2.9,7,2.1,11s2.3,17.8,2.3,17.8
	s5.1,24.8,4.9,25.5s-5.1-7.8-5.1-12s-4.2-17.3-4.8-18.1s-4.8-23.2-4.8-23.2s-3.4-9.4-5.6-12.6s-4.9-9.1-6-10.1
	c-1-0.8-2.1-1.3-3.2-1.7L404.9,343.6z"/>
<path class="st5" d="M428.9,398.2c0,0,10.4-6.8,15.4-3.5c5,3.4,13.2,8.1,5.2,11.6s-19.3,2.8-19.3,2.8L428.9,398.2z"/>
<path class="st3" d="M421.6,463.9c-1.5,3.3-2.8,20-3.7,25.3c-1.2-2.1-2.7-4.7-3.2-5.5c-1.2-2.5-2.2-5.1-3-7.8
	c1-2.4,3.7-9.3,3.7-11.8c0-3.1,5-7,5-7C422.2,458.9,422.7,461.6,421.6,463.9z"/>
<path class="st3" d="M421.7,317.6c-0.2,0.1-0.5,0.2-0.8,0.3c-1.2,0.3-2.4-0.5-3.5-1.2s-2.6-1.1-3.5-0.3c-1.2,1.1-0.3,3.5-1.6,4.6
	c-0.8,0.7-2.1,0.5-3,1s-1.2,1.8-1.4,2.9s-0.7,2.3-1.7,2.6s-2-0.4-3-0.3c-0.2,0-0.5,0-0.6-0.1s-0.1-0.3-0.1-0.5
	c0.1-1.3,0-2.6-0.3-3.8c-0.4-1.3-1.4-2.2-2.7-2.5c-1.8-0.3-3.4,1.3-4.5,2.9s-2.2,3.3-3.1,5c0,0.1-0.1,0.2-0.2,0.4
	c-0.9-2-1.4-4.2-1.4-6.5c0-8.8,7.2-16,16.1-15.9C413.5,306.2,419.7,310.8,421.7,317.6L421.7,317.6z"/>
<path class="st4" d="M395,322.9c1.1-1.5,2.6-3.1,4.5-2.9c1.3,0.3,2.3,1.2,2.7,2.5c0.3,1.2,0.5,2.5,0.3,3.8c0,0.2,0,0.3,0.1,0.5
	s0.4,0.1,0.6,0.1c1,0,2,0.6,3,0.3s1.5-1.5,1.7-2.6s0.5-2.3,1.4-2.9s2.2-0.3,3-1c1.3-1.1,0.4-3.5,1.6-4.6c1-0.9,2.5-0.4,3.5,0.3
	s2.3,1.5,3.5,1.2c0.4-0.1,0.8-0.3,1.2-0.5c2-0.7,4.5,0.5,6.1-0.8c0.6-0.6,1-1.3,1.2-2.1c0.4-1.1,0.7-2.2,0.9-3.3
	c0.1-1.2-0.2-2.3-0.9-3.3c-1-1.2-2.8-1.5-4.1-2.4c-1.1-0.8-2-1.9-2.6-3.1c-0.7-1.2-1.5-2.3-2.6-3.2c-1.1-0.9-2.6-1.1-3.9-0.6
	c-0.4,0.3-0.8,0.5-1.3,0.6c-0.5,0-1-0.1-1.4-0.4c-4.5-2.1-9.8-1.8-14.8-1.1c-2,0.2-4,0.6-5.8,1.4c-1.9,0.8-3.3,2.4-3.9,4.3
	c-0.4,1.5-0.1,3.2-0.6,4.7c-0.3,1-1,1.9-1.4,2.9c-1.1,2.8,0.2,5.8,0.8,8.7c0.6,3.2,0.3,6.6,1.6,9.6c0.3,0.6,0.6,1.6,1.2,1.2
	c0.5-0.3,1-2,1.2-2.5C392.8,326.1,393.9,324.5,395,322.9z"/>
<path class="st3" d="M366.2,374.1l-2.4,6.7c0,0,5.6,20.8,8.2,25.2s6.5,10,6.5,10c4.4,2,9.3,2.6,14,1.7c7.5-1.5,29.4-5.4,29.4-5.4
	c1.1,0.2,2.1-0.2,2.8-1c1-1.4,5.9-2.1,5.9-2.1s5.8-8.4-1.3-11.9c0,0-0.9,1.9-4.6,0.6s-4.9,1-4.9,1s-6.1,1.2-9.5,0.8
	s-11.9-0.6-12.8-1.3c-0.5-0.4-1.2-0.4-1.6,0.1l0,0c-1-0.4-2-0.9-2.8-1.6c-0.7-0.8-1.7,0.9-1.7,0.9s-1.2-0.7-0.9-1.6
	s-1.1-4.2-1.1-4.2c-0.4-1.3-0.5-2.6-0.3-3.9c0.4-1.8-2.2-8-2.2-8c0-1.1,0.1-2.1,0.4-3.1c0.4-1.6-3.3-4.7-3.3-4.7s-3.7-17.8-11.4-12
	S366.2,374.1,366.2,374.1z"/>
<path class="st6" d="M365.7,374.1l-2.4,6.7c0,0,5.6,20.8,8.2,25.2s6.5,10,6.5,10c4.4,2,9.3,2.6,14,1.7c7.5-1.5,29.4-5.4,29.4-5.4
	c1.1,0.2,2.1-0.2,2.8-1c1-1.4,5.9-2.1,5.9-2.1s5.8-8.4-1.3-11.9c0,0-0.9,1.9-4.6,0.6s-4.9,1-4.9,1s-6.1,1.2-9.5,0.8
	s-11.9-0.6-12.8-1.3c-0.5-0.4-1.2-0.4-1.6,0.1l0,0c-1-0.4-2-0.9-2.8-1.6c-0.7-0.8-1.7,0.9-1.7,0.9s-1.2-0.7-0.9-1.6s-1-4.2-1-4.2
	c-0.4-1.3-0.5-2.6-0.3-3.9c0.4-1.8-2.2-8-2.2-8c0-1.1,0.1-2.1,0.4-3.1c0.4-1.6-3.3-4.7-3.3-4.7s-3.7-17.8-11.4-12
	S365.7,374.1,365.7,374.1z"/>
<path class="st3" d="M387.3,394.3c0,0-8.6,1.8-5.7,3.2S387.3,394.3,387.3,394.3z"/>
<g class="st14">
	<path d="M402.1,321c-0.4-1.3-1.4-2.2-2.7-2.5c-1.8-0.3-3.4,1.3-4.5,2.8c-1.1,1.6-2.2,3.3-3.1,5c-0.3,0.5-0.8,2.2-1.2,2.5
		c-0.7,0.4-1-0.6-1.2-1.2c-1.4-3-1-6.5-1.6-9.6c-0.5-1.8-0.8-3.7-1.1-5.6c-0.2,2.3,0.7,4.7,1.1,7c0.6,3.2,0.3,6.6,1.6,9.6
		c0.3,0.6,0.6,1.6,1.2,1.2c0.5-0.3,1-2,1.2-2.5c0.9-1.7,2-3.4,3.1-5c1.1-1.5,2.6-3.1,4.5-2.8c1.3,0.3,2.3,1.2,2.7,2.5
		c0.2,0.6,0.3,1.3,0.4,2C402.6,323.3,402.4,322.1,402.1,321z"/>
	<path d="M429.4,312.8c-0.2,0.8-0.6,1.5-1.2,2.1c-1.6,1.3-4.1,0.1-6.1,0.8c-0.4,0.1-0.8,0.4-1.2,0.5c-1.2,0.3-2.4-0.5-3.5-1.2
		s-2.6-1.2-3.5-0.3c-1.2,1.1-0.3,3.5-1.6,4.6c-0.8,0.7-2.1,0.5-3,1s-1.2,1.8-1.4,2.9s-0.7,2.3-1.7,2.6s-2-0.4-3-0.3
		c-0.2,0-0.5,0-0.6-0.1l-0.1-0.1c0,0.4,0,0.7,0,1c0,0.2,0,0.3,0.1,0.5s0.4,0.1,0.6,0.1c1,0,2,0.6,3,0.3s1.5-1.5,1.7-2.6
		s0.5-2.3,1.4-2.9s2.2-0.3,3-1c1.3-1.1,0.4-3.5,1.6-4.6c1-0.9,2.5-0.4,3.5,0.3s2.3,1.5,3.5,1.2c0.4-0.1,0.8-0.3,1.2-0.5
		c2-0.7,4.5,0.5,6.1-0.8c0.6-0.6,1-1.3,1.2-2.1c0.4-1.1,0.7-2.2,0.9-3.3c0-0.4,0-0.8,0-1.2C430.1,310.7,429.8,311.8,429.4,312.8z"/>
</g>
<ellipse class="st9" cx="940" cy="638.6" rx="40.9" ry="7.9"/>
<circle class="st15" cx="943.2" cy="333.8" r="25.6"/>
<path class="st16" d="M39.4,289c8.5-17.7,32.3-38.5,54.6-30.1c21.5,8.2,33.1,16.2,37,30.8c5,19-18.9,42.6-32.7,56.5
	c-13.9,13.9-36.5,13.9-50.5,0C33.9,332.3,30.9,306.8,39.4,289z"/>
<path class="st16" d="M821.4,323.5c25.9-9.1,70.1-6.1,83.8,24.4c13.2,29.3,16.8,48.8,6.1,67.1c-13.9,23.8-60.7,23.5-88.3,23.5
	s-49.9-22.4-49.9-49.9C773.1,360.9,795.4,332.6,821.4,323.5z"/>
<path class="st16" d="M676.7,141.2c13.2-2.2,34.2,3.1,38.2,19c3.8,15.2,3.8,24.9-2.9,32.7c-8.8,10.3-27,30.6-44.2,18.9
	c-18.2-12.5-29.9-29.9-20-43.4C656,157.5,663.5,143.3,676.7,141.2z"/>
<ellipse class="st0" cx="255" cy="568.6" rx="119.5" ry="24"/>
<ellipse class="st0" cx="940" cy="639.6" rx="119.5" ry="24"/>
<ellipse class="st0" cx="120" cy="639.6" rx="119.5" ry="24"/>
<rect x="200.6" y="373.3" class="st4" width="108.6" height="198.1"/>
<path class="st17" d="M205.2,566.3h99.2v-188h-99.2V566.3z"/>
<rect x="860" y="295.3" class="st4" width="159" height="290"/>
<path class="st17" d="M866.9,577.9h145.3V302.6H866.9V577.9z"/>
<rect x="887.6" y="426.2" class="st18" width="59" height="3.5"/>
<rect x="887.6" y="438.3" class="st19" width="102.8" height="3.5"/>
<rect x="887.6" y="450.5" class="st19" width="102.7" height="3.5"/>
<rect x="887.6" y="486.5" class="st18" width="59" height="3.5"/>
<rect x="887.6" y="498.6" class="st19" width="102.8" height="3.5"/>
<rect x="887.6" y="510.8" class="st19" width="102.7" height="3.5"/>
<rect x="923.9" y="550" class="st19" width="66.4" height="3.5"/>
<rect x="935.3" y="581.4" class="st4" width="9.8" height="59.2"/>
<rect x="220" y="462.8" class="st18" width="39.8" height="2.4"/>
<rect x="220" y="470.9" class="st19" width="69.3" height="2.4"/>
<rect x="220" y="479.1" class="st19" width="69.3" height="2.4"/>
<rect x="220" y="503.4" class="st18" width="39.8" height="2.4"/>
<rect x="220" y="511.6" class="st19" width="69.3" height="2.4"/>
<rect x="220" y="519.8" class="st19" width="69.3" height="2.4"/>
<rect x="244.5" y="546.3" class="st19" width="44.8" height="2.4"/>
<g>
	<path class="st10" d="M253.3,439.2c-3.4,1.6-10.4-0.4-15.9-0.3c-9.2,0.3-16.9-1.7-19.9-5c-3.8-4.2-4.3-8.4-2-15.9
		c1.3-4.4,4.9-8.6,10.8-9.5c1.1-0.2,2.2-0.2,3.2-0.1c0.1,4.3,4,5.7,6.9,8.4c8.6,7.8,10.7,10.2,16.2,9.6c0,0,0,0,0,0
		c0.8,1.7,1.4,3.4,1.9,5.1C256,436.1,255.2,438.2,253.3,439.2z"/>
	<path class="st20" d="M252.3,427.9c3.5-14.3,14-18.1,26.5-16.6c8.7,1,13.3,3.8,14.9,6.5c3,5.1,0.2,14.7-4.1,19.7
		c-4.1,4.8-8,3.9-17.1,3.7C246.1,440.5,249.8,438.1,252.3,427.9z"/>
	<path class="st21" d="M252.7,426.4c-5.6,0.5-7.6-1.8-16.2-9.6c-2.9-2.6-6.8-4.1-6.9-8.4c5.1,0.4,10.3,3,13.2,5
		C247.1,416.4,250.5,421.3,252.7,426.4z"/>
	<path class="st22" d="M267.8,414.9c-0.1,5.6-6.1,10.2-14.1,11.3c-0.3,0-0.7,0.1-1,0.1c0,0,0,0,0,0c-2.2-5.1-5.6-10-10-13
		c-2.9-2-8.1-4.6-13.2-5c0-1,0.2-2.1,0.6-3.4c2.6-8,16.8-10.2,27.2-4.6c7.1,3.8,9.5,7.7,10.3,11.4
		C267.8,412.8,267.8,413.9,267.8,414.9z"/>
</g>
<g>
	<path class="st10" d="M937.9,388.6c-5,2.4-15.2-0.6-23.2-0.4c-13.4,0.5-24.6-2.4-29-7.3c-5.5-6.1-6.3-12.3-2.9-23.2
		c1.9-6.4,7.2-12.6,15.7-13.9c1.5-0.2,3.1-0.3,4.7-0.1c0.2,6.2,5.9,8.4,10.1,12.2C926,367.3,929,370.7,937,370c0,0,0,0,0,0
		c1.1,2.5,2,5,2.8,7.5C941.8,384.1,940.7,387.2,937.9,388.6z"/>
	<path class="st20" d="M936.5,372.2c5.2-20.9,20.4-26.4,38.6-24.2c12.6,1.5,19.4,5.5,21.7,9.5c4.3,7.4,0.3,21.5-6,28.8
		c-6,7-11.7,5.7-24.9,5.3C927.4,390.6,932.8,387,936.5,372.2z"/>
	<path class="st21" d="M937,370c-8.1,0.7-11.1-2.7-23.7-14.1c-4.3-3.8-10-6-10.1-12.2c7.4,0.6,15,4.4,19.2,7.3
		C928.9,355.4,933.8,362.6,937,370z"/>
	<path class="st22" d="M959.1,353.3c-0.1,8.1-8.8,14.9-20.6,16.5c-0.5,0.1-1,0.1-1.4,0.2c0,0,0,0,0,0c-3.3-7.4-8.1-14.6-14.6-19
		c-4.2-2.9-11.8-6.7-19.2-7.3c0-1.4,0.2-3.1,0.8-5c3.8-11.7,24.5-14.8,39.7-6.7c10.4,5.6,13.9,11.3,15,16.6
		C959,350.2,959.1,351.8,959.1,353.3z"/>
</g>
</svg>
