<?xml version="1.0" encoding="utf-8"?>
<!-- Generator: Adobe Illustrator 22.1.0, SVG Export Plug-In . SVG Version: 6.00 Build 0)  -->
<svg version="1.1" id="Layer_1" xmlns="http://www.w3.org/2000/svg" xmlns:xlink="http://www.w3.org/1999/xlink" x="0px" y="0px"
	 viewBox="0 0 275.1 86.4" style="enable-background:new 0 0 275.1 86.4;" xml:space="preserve">
<style type="text/css">
	.st0{fill:#4285F4;}
	.st1{fill:#EA4335;}
	.st2{fill:#FBBC05;}
	.st3{fill:#34A853;}
</style>
<path class="st0" d="M35.3,30.9v9.3h22c-0.7,5.2-2.2,9-4.9,11.6c-3.4,3.4-8.2,6.7-16.8,6.7c-13.4,0-24.3-10.8-24.3-24.3
	S21.8,10,35.7,10c7.1,0,12.7,3,16.4,6.7l6.3-6.3C52.8,5.1,45.7,1,35.3,1c-18.7,0-34,14.9-34,33.6s15.7,33.6,34,33.6
	c10.1,0,17.6-3.4,23.5-9.3s7.8-14.6,7.8-21.3c0-2.2,0-4.1-0.4-5.6h-31V30.9z"/>
<path class="st1" d="M94.3,23.4c-12,0-21.7,9-21.7,21.7c0,12.3,9.7,21.7,21.7,21.7S116,57.4,116,45.1C116,32.4,106.2,23.4,94.3,23.4
	z M94.3,58.1c-6.7,0-12.3-5.2-12.3-13.1S87.6,32,94.3,32c6.7,0,12.3,5.2,12.3,13.1S100.6,58.1,94.3,58.1z"/>
<path class="st0" d="M201.1,28.3L201.1,28.3c-2.6-2.6-6.7-4.9-12-4.9c-10.8,0-20.2,9.3-20.2,21.7s9.3,21.7,20.2,21.7
	c5.2,0,9.3-2.2,11.6-4.9h0.4v3c0,8.2-4.5,12.7-11.6,12.7c-6,0-9.3-4.1-10.8-7.8l-8.2,3.4c2.2,5.6,8.6,12.7,19.4,12.7
	c11.2,0,20.5-6.7,20.5-22.8V24.5h-9v3.7H201.1z M189.9,58.1c-6.7,0-11.6-5.6-11.6-13.1c0-7.8,4.9-13.1,11.6-13.1
	c6.3,0,11.6,5.6,11.6,13.1C201.5,52.9,196.6,58.1,189.9,58.1z"/>
<path class="st2" d="M142.9,23.4c-12,0-21.7,9-21.7,21.7c0,12.3,9.7,21.7,21.7,21.7c12,0,21.7-9.3,21.7-21.7
	C164.5,32.4,154.8,23.4,142.9,23.4z M142.9,58.1c-6.7,0-12.3-5.2-12.3-13.1S136.1,32,142.9,32c6.7,0,12.3,5.2,12.3,13.1
	S149.2,58.1,142.9,58.1z"/>
<path class="st3" d="M217.5,1h9.3v65.7h-9.3V1z"/>
<path class="st1" d="M255.6,58.1c-4.9,0-8.2-2.2-10.5-6.7l29.1-12l-1.1-2.6C271.3,32,265.7,23,254.5,23c-11.2,0-20.5,9-20.5,21.7
	c0,12.3,9.3,21.7,21.7,21.7c10.1,0,15.7-6,17.9-9.7l-7.5-4.9C263.9,55.9,260.5,58.1,255.6,58.1L255.6,58.1z M255.3,31.6
	c3.7,0,7.1,1.9,8.2,4.9l-19.4,8.2C243.7,35.4,250,31.6,255.3,31.6z"/>
</svg>
