<?xml version="1.0" encoding="utf-8"?>
<!-- Generator: Adobe Illustrator 22.1.0, SVG Export Plug-In . SVG Version: 6.00 Build 0)  -->
<svg version="1.1" id="Layer_1" xmlns="http://www.w3.org/2000/svg" xmlns:xlink="http://www.w3.org/1999/xlink" x="0px" y="0px"
	 viewBox="0 0 56.7 56.7" style="enable-background:new 0 0 56.7 56.7;" xml:space="preserve">
<g>
	<path d="M28.3,13.8c-7.9,0-14.5,6.4-14.5,14.5s6.4,14.5,14.5,14.5s14.5-6.6,14.5-14.5S36.2,13.8,28.3,13.8z M28.3,37.5
		c-5.1,0-9.3-4.2-9.3-9.3s4.2-9.3,9.3-9.3s9.3,4.2,9.3,9.3S33.4,37.5,28.3,37.5z"/>
	<circle cx="43.4" cy="13.4" r="3.3"/>
	<path d="M51.9,4.9C48.9,1.9,44.7,0.3,40,0.3H16.7C6.8,0.3,0.3,6.9,0.3,16.7v23.2c0,4.9,1.6,9.1,4.8,12.1c3.1,2.9,7.1,4.4,11.8,4.4
		h23.1c4.9,0,8.9-1.6,11.9-4.4c3.1-2.9,4.6-7.1,4.6-12V16.7C56.4,12,54.8,7.9,51.9,4.9z M51.4,40c0,3.5-1.2,6.3-3.3,8.3
		c-2,1.9-4.9,2.9-8.3,2.9H16.8c-3.4,0-6.2-1-8.3-2.9c-2-2-3.1-4.9-3.1-8.4V16.7c0-3.4,1-6.2,3.1-8.3c1.9-1.9,4.9-2.9,8.3-2.9h23.3
		c3.4,0,6.2,1,8.3,3.1c1.9,2,3.1,4.9,3.1,8.1V40L51.4,40z"/>
</g>
</svg>
