<?xml version="1.0" encoding="utf-8"?>
<!-- Generator: Adobe Illustrator 22.1.0, SVG Export Plug-In . SVG Version: 6.00 Build 0)  -->
<svg version="1.1" id="Layer_1" xmlns="http://www.w3.org/2000/svg" xmlns:xlink="http://www.w3.org/1999/xlink" x="0px" y="0px"
	 viewBox="0 0 178.1 125.9" style="enable-background:new 0 0 178.1 125.9;" xml:space="preserve">
<style type="text/css">
	.st0{fill:#EF4436;}
	.st1{fill:#4F4447;}
	.st2{fill:#00AFB4;}
	.st3{fill:#F57F20;}
	.st4{fill:#1E8849;}
	.st5{fill:#F4B11B;}
</style>
<g>
	<path class="st0" d="M86.6,99.6c-6.6,3.2-20.1-0.8-30.6-0.5c-17.8,0.6-32.5-3.2-38.3-9.7c-7.3-8.1-8.3-16.3-3.9-30.7
		c2.6-8.4,9.5-16.6,20.8-18.3c2-0.3,4.1-0.4,6.3-0.2c0.2,8.2,7.8,11.1,13.4,16.2c16.7,15,20.6,19.6,31.3,18.6c0,0,0,0,0,0
		c-0.3,1-0.6,1.9-0.8,3C81.9,89.7,78.1,96.1,86.6,99.6z"/>
	<path class="st1" d="M86.6,99.6c-8.5-3.5-4.8-9.9-1.9-21.7c0.2-1,0.5-2,0.8-3c1.5,3.3,2.7,6.6,3.7,9.9
		C91.9,93.6,90.4,97.8,86.6,99.6z"/>
	<path class="st2" d="M156.6,96.5c-8,9.2-15.4,7.5-32.9,7.1c-20.4-0.5-31.4-1.6-37.1-4c3.8-1.8,5.3-6,2.6-14.7
		c-1-3.2-2.2-6.6-3.7-9.9c0,0,0,0,0,0c0.6-0.1,1.2-0.1,1.9-0.2c15.6-2.2,27.1-11.1,27.2-21.9c0-2-0.1-4.1-0.5-6.2
		c6.6-1.5,13.9-1.6,21.6-0.7c16.7,2,25.6,7.3,28.7,12.5C170.3,68.2,165,86.9,156.6,96.5z"/>
	<path class="st3" d="M85.6,75c-10.7,1-14.6-3.6-31.3-18.6c-5.6-5.1-13.2-7.9-13.4-16.2c9.8,0.7,19.8,5.8,25.4,9.6
		C74.8,55.7,81.2,65.2,85.6,75z"/>
	<path class="st4" d="M114.7,52.9c-0.2,10.7-11.7,19.7-27.2,21.9c-0.7,0.1-1.3,0.2-1.9,0.2c5-16.8,15.4-25.3,28.6-28.3
		C114.6,48.8,114.7,50.9,114.7,52.9z"/>
	<path class="st5" d="M114.2,46.6C101,49.6,90.6,58.1,85.6,75c0,0,0,0,0,0c-4.3-9.8-10.7-19.3-19.3-25.1C60.6,46,50.6,41,40.8,40.2
		c0-1.9,0.3-4,1.1-6.6C47,18.2,74.4,14,94.4,24.7C108.2,32.1,112.8,39.6,114.2,46.6z"/>
</g>
</svg>
